<svg width="36" height="36" viewBox="0 0 36 36" fill="none" xmlns="http://www.w3.org/2000/svg">
<g clip-path="url(#clip0_242_2714)">
<path d="M1.15523 22.5C0.811406 22.5 0.501328 22.263 0.423281 21.9136C0.142734 20.667 0 19.3486 0 18C0 8.07469 8.07469 0 18 0C23.7002 0 29.1122 2.745 32.4795 7.34273C32.7241 7.67742 32.6517 8.14641 32.3191 8.39109C31.9816 8.63578 31.5134 8.56336 31.2708 8.22937C28.1841 4.01555 23.2235 1.50047 18 1.50047C8.90227 1.49977 1.49977 8.90227 1.49977 18C1.49977 19.2389 1.63055 20.4448 1.88648 21.5866C1.97789 21.9902 1.72266 22.3924 1.31766 22.4824C1.26211 22.4944 1.20797 22.5007 1.15383 22.5007L1.15523 22.5Z" fill="#0D3247"/>
<path d="M18 36C12.2998 36 6.88781 33.255 3.52055 28.6572C3.27586 28.3225 3.34828 27.8536 3.68086 27.6089C4.01695 27.3628 4.48312 27.4352 4.72922 27.7706C7.81594 31.9844 12.7765 34.4995 18 34.4995C27.0977 34.4995 34.5002 27.097 34.5002 17.9993C34.5002 16.7407 34.3652 15.5376 34.0995 14.4232C34.0031 14.0196 34.2527 13.616 34.6542 13.5203C35.0592 13.4212 35.4628 13.6736 35.5584 14.0765C35.8509 15.3035 35.9993 16.6232 35.9993 17.9993C35.9993 27.9246 27.9246 35.9993 17.9993 35.9993L18 36Z" fill="#0D3247"/>
<path d="M3.82505 32.9997C3.41724 32.9997 3.08255 32.6728 3.07482 32.2615L2.99959 27.7615C2.99677 27.5604 3.07482 27.367 3.21544 27.2229C3.35607 27.0787 3.54873 26.9993 3.74912 26.9993H8.24912C8.66326 26.9993 8.99935 27.3354 8.99935 27.7495C8.99935 28.1636 8.66326 28.4997 8.24912 28.4997H4.51271L4.57388 32.2375C4.58162 32.6517 4.24974 32.992 3.8356 32.9997H3.82365H3.82505Z" fill="#0D3247"/>
<path d="M32.2502 8.99998H27.7502C27.3361 8.99998 27 8.66389 27 8.24975C27 7.83561 27.3361 7.49951 27.7502 7.49951H31.5V3.74975C31.5 3.33561 31.8361 2.99951 32.2502 2.99951C32.6644 2.99951 33.0005 3.33561 33.0005 3.74975V8.24975C33.0005 8.66389 32.6644 8.99998 32.2502 8.99998Z" fill="#0D3247"/>
<path d="M21.75 27C20.3472 27 19.0303 26.4536 18.0375 25.4622L10.5372 17.962C9.54584 16.9706 8.99951 15.6522 8.99951 14.2495C8.99951 11.3547 11.3543 8.99927 14.2497 8.99927C15.6525 8.99927 16.9694 9.5456 17.9622 10.537L25.4625 18.0372C26.4539 19.0286 27.0002 20.347 27.0002 21.7497C27.0002 24.6445 24.6454 27 21.75 27ZM14.2497 10.4997C12.1812 10.4997 10.5 12.183 10.5 14.2495C10.5 15.2515 10.8902 16.1922 11.5983 16.9017L19.0985 24.4019C19.808 25.11 20.7501 25.5002 21.7507 25.5002C23.8193 25.5002 25.5005 23.8169 25.5005 21.7504C25.5005 20.7485 25.1102 19.8077 24.4022 19.0983L16.9019 11.598C16.1925 10.89 15.2503 10.4997 14.2497 10.4997Z" fill="#0D3247"/>
<path d="M14.2842 20.6514L20.6461 14.2896L21.7064 15.3499L15.3445 21.7117L14.2842 20.6514Z" fill="#0D3247"/>
</g>
<defs>
<clipPath id="clip0_242_2714">
<rect width="36" height="36" fill="white"/>
</clipPath>
</defs>
</svg>
