<svg width="36" height="36" viewBox="0 0 36 36" fill="none" xmlns="http://www.w3.org/2000/svg">
<g clip-path="url(#clip0_242_2731)">
<path d="M14.3137 32.4478H14.0059C13.7088 32.4478 13.4678 32.684 13.4678 32.9751C13.4678 33.2662 13.7088 33.5024 14.0059 33.5024H14.3137C14.6107 33.5024 14.8518 33.2662 14.8518 32.9751C14.8518 32.684 14.6107 32.4478 14.3137 32.4478Z" fill="#0D3247"/>
<path d="M25.0823 15.2937C24.7853 15.2937 24.5442 15.5299 24.5442 15.821V29.9496H9.67111C9.37408 29.9496 9.13301 30.1859 9.13301 30.477C9.13301 30.768 9.37408 31.0043 9.67111 31.0043H24.5112C24.2436 33.2205 22.3165 34.9446 19.9847 34.9446H8.33519C6.00342 34.9446 4.0763 33.2198 3.80868 31.0043H7.47638C7.77341 31.0043 8.01448 30.768 8.01448 30.477C8.01448 30.1859 7.77341 29.9496 7.47638 29.9496H3.7764V9.8993H19.1553C19.4524 9.8993 19.6934 9.66305 19.6934 9.37195C19.6934 9.08086 19.4524 8.84461 19.1553 8.84461H3.8094C4.0763 6.62906 6.00413 4.9043 8.33591 4.9043H16.5057C16.8027 4.9043 17.0438 4.66805 17.0438 4.37695C17.0438 4.08586 16.8027 3.84961 16.5057 3.84961H8.33591C5.22855 3.84891 2.7002 6.32672 2.7002 9.37195V30.4777C2.7002 33.5229 5.22855 36 8.33519 36H19.9847C23.0921 36 25.6204 33.5229 25.6204 30.4777V15.821C25.6204 15.5299 25.3794 15.2937 25.0823 15.2937Z" fill="#0D3247"/>
<path d="M16.3534 6.34717H11.9668C11.6698 6.34717 11.4287 6.58342 11.4287 6.87451C11.4287 7.16561 11.6698 7.40186 11.9668 7.40186H16.3534C16.6504 7.40186 16.8915 7.16561 16.8915 6.87451C16.8915 6.58342 16.6504 6.34717 16.3534 6.34717Z" fill="#0D3247"/>
<path d="M29.5079 1.29234C29.2762 1.11023 28.9376 1.1475 28.7517 1.37461C28.5659 1.60172 28.6039 1.93359 28.8357 2.1157C29.8681 2.9257 30.4607 4.13156 30.4607 5.4232V5.4682C30.4607 5.7593 30.7018 5.99555 30.9988 5.99555C31.2959 5.99555 31.5369 5.7593 31.5369 5.4682V5.4232C31.5369 3.80883 30.7972 2.30344 29.5079 1.29234Z" fill="#0D3247"/>
<path d="M30.5956 0.106891C30.3588 -0.0688903 30.0209 -0.0231872 29.8415 0.209547C29.6621 0.441578 29.7088 0.77275 29.9462 0.948532C31.3941 2.0215 32.2242 3.65275 32.2242 5.42392V5.89713C32.2242 6.18822 32.4653 6.42447 32.7623 6.42447C33.0593 6.42447 33.3004 6.18822 33.3004 5.89713V5.42392C33.3004 3.31877 32.3146 1.38095 30.5956 0.106891Z" fill="#0D3247"/>
<path d="M22.6253 1.37461C22.4395 1.1475 22.1008 1.11023 21.8691 1.29234C20.5798 2.30344 19.8408 3.80953 19.8408 5.4232V5.4682C19.8408 5.7593 20.0819 5.99555 20.3789 5.99555C20.676 5.99555 20.917 5.7593 20.917 5.4682V5.4232C20.917 4.13086 21.5096 2.9257 22.5421 2.1157C22.7738 1.93359 22.8119 1.60172 22.626 1.37461H22.6253Z" fill="#0D3247"/>
<path d="M21.5351 0.209582C21.3557 -0.0224489 21.0185 -0.0688552 20.781 0.106926C19.062 1.38099 18.0762 3.3188 18.0762 5.42325V5.89646C18.0762 6.18755 18.3172 6.4238 18.6143 6.4238C18.9113 6.4238 19.1524 6.18755 19.1524 5.89646V5.42325C19.1524 3.65208 19.9825 2.02083 21.4303 0.947864C21.6671 0.772082 21.7145 0.441614 21.5351 0.208879V0.209582Z" fill="#0D3247"/>
<path d="M30.3934 9.99421C30.0074 9.99421 29.6931 9.68624 29.6931 9.30796V5.46679C29.6931 3.46851 28.1786 1.79929 26.2278 1.53632V0.98999C26.2278 0.698896 25.9867 0.462646 25.6897 0.462646C25.3926 0.462646 25.1516 0.698896 25.1516 0.98999V1.53491C24.2863 1.64812 23.4871 2.03202 22.8585 2.64866C22.1023 3.38976 21.6862 4.37483 21.6862 5.42319V9.30796C21.6862 9.68624 21.372 9.99421 20.986 9.99421C20.3948 9.99421 19.9141 10.4653 19.9141 11.0447V11.6241C19.9141 12.2034 20.3948 12.6745 20.986 12.6745H23.7131C23.9534 13.6005 24.8115 14.2882 25.8303 14.2882C26.8491 14.2882 27.7072 13.6012 27.9475 12.6745H30.3948C30.986 12.6745 31.4667 12.2034 31.4667 11.6241V11.0447C31.4667 10.4653 30.986 9.99421 30.3948 9.99421H30.3934ZM25.8289 13.2335C25.4127 13.2335 25.0497 13.0078 24.8603 12.6745H26.7974C26.608 13.0078 26.245 13.2335 25.8289 13.2335ZM27.5006 11.6212C27.492 11.6212 27.4841 11.6198 27.4755 11.6198H24.183C24.1643 11.6198 24.1464 11.6205 24.1285 11.6226L20.9895 11.6241L20.9852 11.0489C21.9646 11.0489 22.7617 10.2677 22.7617 9.30796V5.4239C22.7617 4.65749 23.0659 3.93679 23.6191 3.39538C24.1722 2.85327 24.9055 2.55515 25.6875 2.55515C25.6875 2.55515 25.689 2.55515 25.6897 2.55515C25.6904 2.55515 25.6911 2.55515 25.6925 2.55515C25.7026 2.55515 25.7134 2.55515 25.7241 2.55515C27.3198 2.57272 28.6177 3.87913 28.6177 5.46749V9.30866C28.6177 10.2663 29.4105 11.0454 30.3819 11.0454H30.3898L30.3941 11.6212L27.5013 11.6226L27.5006 11.6212Z" fill="#0D3247"/>
<path d="M19.1157 24.2542H18.5037C18.5159 24.2423 18.5296 24.231 18.5418 24.2191C19.2592 23.5159 19.6538 22.5815 19.6538 21.5873C19.6538 20.5931 19.2585 19.6579 18.5418 18.9555L15.1503 15.6318C14.4343 14.9301 13.4807 14.5427 12.4641 14.5413C11.4489 14.5427 10.4954 14.9294 9.77933 15.6318C8.29847 17.0831 8.29847 19.4449 9.77933 20.8961L11.4754 22.5583L13.1715 24.2205C13.1837 24.2324 13.1966 24.2437 13.2095 24.2556H9.20607C8.90904 24.2556 8.66797 24.4919 8.66797 24.783C8.66797 25.0741 8.90904 25.3103 9.20607 25.3103H19.1172C19.4142 25.3103 19.6553 25.0741 19.6553 24.783C19.6553 24.4919 19.4142 24.2556 19.1172 24.2556L19.1157 24.2542ZM10.5398 20.1494C9.47871 19.1095 9.47871 17.417 10.5398 16.3771C11.0528 15.8744 11.7366 15.5967 12.4641 15.5959C13.1923 15.5967 13.8761 15.8744 14.3898 16.3771L15.7049 17.6659L11.8557 21.4382L10.5406 20.1494H10.5398ZM15.8563 24.2542C15.1295 24.2542 14.4457 23.9765 13.932 23.4731L12.6169 22.1842L16.4661 18.412L17.7812 19.7008C17.8135 19.7324 17.8444 19.7641 17.8745 19.7971C18.3294 20.2886 18.5776 20.9186 18.5776 21.5873C18.5776 22.3002 18.2942 22.9696 17.7805 23.4738C17.2668 23.9772 16.5831 24.2549 15.8556 24.2549L15.8563 24.2542Z" fill="#0D3247"/>
</g>
<defs>
<clipPath id="clip0_242_2731">
<rect width="30.6" height="36" fill="white" transform="translate(2.7002)"/>
</clipPath>
</defs>
</svg>
