<svg width="32" height="36" viewBox="0 0 32 36" fill="none" xmlns="http://www.w3.org/2000/svg">
<g clip-path="url(#clip0_242_3401)">
<path d="M12.3137 32.4478H12.0059C11.7088 32.4478 11.4678 32.684 11.4678 32.9751C11.4678 33.2662 11.7088 33.5024 12.0059 33.5024H12.3137C12.6107 33.5024 12.8518 33.2662 12.8518 32.9751C12.8518 32.684 12.6107 32.4478 12.3137 32.4478Z" fill="#0D3247"/>
<path d="M23.0823 15.2937C22.7853 15.2937 22.5442 15.5299 22.5442 15.821V29.9496H7.67111C7.37408 29.9496 7.13301 30.1859 7.13301 30.477C7.13301 30.768 7.37408 31.0043 7.67111 31.0043H22.5112C22.2436 33.2205 20.3165 34.9446 17.9847 34.9446H6.33519C4.00342 34.9446 2.0763 33.2198 1.80868 31.0043H5.47638C5.77341 31.0043 6.01448 30.768 6.01448 30.477C6.01448 30.1859 5.77341 29.9496 5.47638 29.9496H1.7764V9.8993H17.1553C17.4524 9.8993 17.6934 9.66305 17.6934 9.37195C17.6934 9.08086 17.4524 8.84461 17.1553 8.84461H1.8094C2.0763 6.62906 4.00413 4.9043 6.33591 4.9043H14.5057C14.8027 4.9043 15.0438 4.66805 15.0438 4.37695C15.0438 4.08586 14.8027 3.84961 14.5057 3.84961H6.33591C3.22855 3.84891 0.700195 6.32672 0.700195 9.37195V30.4777C0.700195 33.5229 3.22855 36 6.33519 36H17.9847C21.0921 36 23.6204 33.5229 23.6204 30.4777V15.821C23.6204 15.5299 23.3794 15.2937 23.0823 15.2937Z" fill="#0D3247"/>
<path d="M14.3534 6.34717H9.96681C9.66978 6.34717 9.42871 6.58342 9.42871 6.87451C9.42871 7.16561 9.66978 7.40186 9.96681 7.40186H14.3534C14.6504 7.40186 14.8915 7.16561 14.8915 6.87451C14.8915 6.58342 14.6504 6.34717 14.3534 6.34717Z" fill="#0D3247"/>
<path d="M27.5079 1.29234C27.2762 1.11023 26.9376 1.1475 26.7517 1.37461C26.5659 1.60172 26.6039 1.93359 26.8357 2.1157C27.8681 2.9257 28.4607 4.13156 28.4607 5.4232V5.4682C28.4607 5.7593 28.7018 5.99555 28.9988 5.99555C29.2959 5.99555 29.5369 5.7593 29.5369 5.4682V5.4232C29.5369 3.80883 28.7972 2.30344 27.5079 1.29234Z" fill="#0D3247"/>
<path d="M28.5956 0.106891C28.3588 -0.0688903 28.0209 -0.0231872 27.8415 0.209547C27.6621 0.441578 27.7088 0.77275 27.9462 0.948532C29.3941 2.0215 30.2242 3.65275 30.2242 5.42392V5.89713C30.2242 6.18822 30.4653 6.42447 30.7623 6.42447C31.0593 6.42447 31.3004 6.18822 31.3004 5.89713V5.42392C31.3004 3.31877 30.3146 1.38095 28.5956 0.106891Z" fill="#0D3247"/>
<path d="M20.6253 1.37461C20.4395 1.1475 20.1008 1.11023 19.8691 1.29234C18.5798 2.30344 17.8408 3.80953 17.8408 5.4232V5.4682C17.8408 5.7593 18.0819 5.99555 18.3789 5.99555C18.676 5.99555 18.917 5.7593 18.917 5.4682V5.4232C18.917 4.13086 19.5096 2.9257 20.5421 2.1157C20.7738 1.93359 20.8119 1.60172 20.626 1.37461H20.6253Z" fill="#0D3247"/>
<path d="M19.5351 0.209582C19.3557 -0.0224489 19.0185 -0.0688552 18.781 0.106926C17.062 1.38099 16.0762 3.3188 16.0762 5.42325V5.89646C16.0762 6.18755 16.3172 6.4238 16.6143 6.4238C16.9113 6.4238 17.1524 6.18755 17.1524 5.89646V5.42325C17.1524 3.65208 17.9825 2.02083 19.4303 0.947864C19.6671 0.772082 19.7145 0.441614 19.5351 0.208879V0.209582Z" fill="#0D3247"/>
<path d="M28.3934 9.99421C28.0074 9.99421 27.6931 9.68624 27.6931 9.30796V5.46679C27.6931 3.46851 26.1786 1.79929 24.2278 1.53632V0.98999C24.2278 0.698896 23.9867 0.462646 23.6897 0.462646C23.3926 0.462646 23.1516 0.698896 23.1516 0.98999V1.53491C22.2863 1.64812 21.4871 2.03202 20.8585 2.64866C20.1023 3.38976 19.6862 4.37483 19.6862 5.42319V9.30796C19.6862 9.68624 19.372 9.99421 18.986 9.99421C18.3948 9.99421 17.9141 10.4653 17.9141 11.0447V11.6241C17.9141 12.2034 18.3948 12.6745 18.986 12.6745H21.7131C21.9534 13.6005 22.8115 14.2882 23.8303 14.2882C24.8491 14.2882 25.7072 13.6012 25.9475 12.6745H28.3948C28.986 12.6745 29.4667 12.2034 29.4667 11.6241V11.0447C29.4667 10.4653 28.986 9.99421 28.3948 9.99421H28.3934ZM23.8289 13.2335C23.4127 13.2335 23.0497 13.0078 22.8603 12.6745H24.7974C24.608 13.0078 24.245 13.2335 23.8289 13.2335ZM25.5006 11.6212C25.492 11.6212 25.4841 11.6198 25.4755 11.6198H22.183C22.1643 11.6198 22.1464 11.6205 22.1285 11.6226L18.9895 11.6241L18.9852 11.0489C19.9646 11.0489 20.7617 10.2677 20.7617 9.30796V5.4239C20.7617 4.65749 21.0659 3.93679 21.6191 3.39538C22.1722 2.85327 22.9055 2.55515 23.6875 2.55515C23.6875 2.55515 23.689 2.55515 23.6897 2.55515C23.6904 2.55515 23.6911 2.55515 23.6925 2.55515C23.7026 2.55515 23.7134 2.55515 23.7241 2.55515C25.3198 2.57272 26.6177 3.87913 26.6177 5.46749V9.30866C26.6177 10.2663 27.4105 11.0454 28.3819 11.0454H28.3898L28.3941 11.6212L25.5013 11.6226L25.5006 11.6212Z" fill="#0D3247"/>
<path d="M17.1157 24.2542H16.5037C16.5159 24.2423 16.5296 24.231 16.5418 24.2191C17.2592 23.5159 17.6538 22.5815 17.6538 21.5873C17.6538 20.5931 17.2585 19.6579 16.5418 18.9555L13.1503 15.6318C12.4343 14.9301 11.4807 14.5427 10.4641 14.5413C9.44887 14.5427 8.49536 14.9294 7.77933 15.6318C6.29847 17.0831 6.29847 19.4449 7.77933 20.8961L9.47542 22.5583L11.1715 24.2205C11.1837 24.2324 11.1966 24.2437 11.2095 24.2556H7.20607C6.90904 24.2556 6.66797 24.4919 6.66797 24.783C6.66797 25.0741 6.90904 25.3103 7.20607 25.3103H17.1172C17.4142 25.3103 17.6553 25.0741 17.6553 24.783C17.6553 24.4919 17.4142 24.2556 17.1172 24.2556L17.1157 24.2542ZM8.53984 20.1494C7.47871 19.1095 7.47871 17.417 8.53984 16.3771C9.05283 15.8744 9.73658 15.5967 10.4641 15.5959C11.1923 15.5967 11.8761 15.8744 12.3898 16.3771L13.7049 17.6659L9.85568 21.4382L8.54056 20.1494H8.53984ZM13.8563 24.2542C13.1295 24.2542 12.4457 23.9765 11.932 23.4731L10.6169 22.1842L14.4661 18.412L15.7812 19.7008C15.8135 19.7324 15.8444 19.7641 15.8745 19.7971C16.3294 20.2886 16.5776 20.9186 16.5776 21.5873C16.5776 22.3002 16.2942 22.9696 15.7805 23.4738C15.2668 23.9772 14.5831 24.2549 13.8556 24.2549L13.8563 24.2542Z" fill="#0D3247"/>
</g>
<defs>
<clipPath id="clip0_242_3401">
<rect width="30.6" height="36" fill="white" transform="translate(0.700195)"/>
</clipPath>
</defs>
</svg>
