<svg width="76" height="96" viewBox="0 0 76 96" fill="none" xmlns="http://www.w3.org/2000/svg">
<path d="M12.673 75.2H15.8412V78.4C15.8412 79.284 16.5501 80 17.4253 80H23.7618C24.637 80 25.3459 79.284 25.3459 78.4V75.2H28.5142C29.3894 75.2 30.0983 74.484 30.0983 73.6V67.2C30.0983 66.316 29.3894 65.6 28.5142 65.6H25.3459V62.4C25.3459 61.516 24.637 60.8 23.7618 60.8H17.4253C16.5501 60.8 15.8412 61.516 15.8412 62.4V65.6H12.673C11.7978 65.6 11.0889 66.316 11.0889 67.2V73.6C11.0889 74.484 11.7978 75.2 12.673 75.2ZM14.2571 68.8H17.4253C18.3006 68.8 19.0095 68.084 19.0095 67.2V64H22.1777V67.2C22.1777 68.084 22.8866 68.8 23.7618 68.8H26.93V72H23.7618C22.8866 72 22.1777 72.716 22.1777 73.6V76.8H19.0095V73.6C19.0095 72.716 18.3006 72 17.4253 72H14.2571V68.8Z" fill="#469D49"/>
<path d="M30.0982 41.6V38.4H31.6823C32.5576 38.4 33.2665 37.684 33.2665 36.8V30.4C33.2585 27.752 31.1358 25.608 28.5141 25.6H12.6729C10.0512 25.608 7.92851 27.752 7.92059 30.4V36.8C7.92059 37.684 8.62948 38.4 9.5047 38.4H11.0888V41.6C4.96819 41.608 0.00792059 46.618 0 52.8V91.2C0.00792059 93.848 2.13064 95.992 4.75235 96H36.4347C39.0564 95.992 41.1791 93.848 41.187 91.2V52.8C41.1791 46.618 36.2189 41.608 30.0982 41.6ZM11.0888 30.4C11.0888 29.516 11.7977 28.8 12.6729 28.8H28.5141C29.3893 28.8 30.0982 29.516 30.0982 30.4V35.2H11.0888V30.4ZM38.0188 91.2C38.0188 92.084 37.3099 92.8 36.4347 92.8H4.75235C3.87713 92.8 3.16823 92.084 3.16823 91.2V86.4H38.0188V91.2ZM38.0188 83.2H3.16823V57.6H38.0188V83.2ZM38.0188 54.4H3.16823V52.8C3.16823 48.382 6.71468 44.8 11.0888 44.8C12.8373 44.794 14.2511 43.366 14.2571 41.6V38.4H26.93V41.6C26.9359 43.366 28.3498 44.794 30.0982 44.8C34.4724 44.8 38.0188 48.382 38.0188 52.8V54.4Z" fill="#469D49"/>
<path d="M71.285 80C73.9086 79.98 76.0215 77.814 75.9997 75.162C75.9838 73.156 74.7363 71.372 72.8691 70.688V24C72.8612 21.352 70.7384 19.208 68.1167 19.2H66.5326V17.6C66.5247 14.952 64.402 12.808 61.7803 12.8V1.6C61.7803 0.716 61.0714 0 60.1961 0C59.3209 0 58.612 0.716 58.612 1.6V12.8C55.9903 12.808 53.8676 14.952 53.8597 17.6V19.2H52.2755C49.6538 19.208 47.5311 21.352 47.5232 24V70.688C45.0559 71.592 43.7807 74.346 44.6777 76.838C45.3549 78.724 47.1212 79.986 49.1073 80H53.8597V86.4H52.2755C49.6519 86.4 47.5232 88.55 47.5232 91.2C47.5232 93.85 49.6519 96 52.2755 96H68.1167C70.7404 96 72.8691 93.85 72.8691 91.2C72.8691 88.55 70.7404 86.4 68.1167 86.4H66.5326V80H71.285ZM57.0279 17.6C57.0279 16.716 57.7368 16 58.612 16H61.7803C62.6555 16 63.3644 16.716 63.3644 17.6V19.2H57.0279V17.6ZM50.6914 24C50.6914 23.116 51.4003 22.4 52.2755 22.4H68.1167C68.9919 22.4 69.7008 23.116 69.7008 24V25.6H64.9485C64.0733 25.6 63.3644 26.316 63.3644 27.2C63.3644 28.084 64.0733 28.8 64.9485 28.8H69.7008V32H61.7803C60.905 32 60.1961 32.716 60.1961 33.6C60.1961 34.484 60.905 35.2 61.7803 35.2H69.7008V38.4H64.9485C64.0733 38.4 63.3644 39.116 63.3644 40C63.3644 40.884 64.0733 41.6 64.9485 41.6H69.7008V44.8H61.7803C60.905 44.8 60.1961 45.516 60.1961 46.4C60.1961 47.284 60.905 48 61.7803 48H69.7008V51.2H64.9485C64.0733 51.2 63.3644 51.916 63.3644 52.8C63.3644 53.684 64.0733 54.4 64.9485 54.4H69.7008V57.6H61.7803C60.905 57.6 60.1961 58.316 60.1961 59.2C60.1961 60.084 60.905 60.8 61.7803 60.8H69.7008V70.4H50.6914V24ZM68.1167 89.6C68.9919 89.6 69.7008 90.316 69.7008 91.2C69.7008 92.084 68.9919 92.8 68.1167 92.8H52.2755C51.4003 92.8 50.6914 92.084 50.6914 91.2C50.6914 90.316 51.4003 89.6 52.2755 89.6H68.1167ZM57.0279 86.4V80H63.3644V86.4H57.0279ZM49.1073 76.8C48.2321 76.8 47.5232 76.084 47.5232 75.2C47.5232 74.316 48.2321 73.6 49.1073 73.6H71.285C72.1602 73.6 72.8691 74.316 72.8691 75.2C72.8691 76.084 72.1602 76.8 71.285 76.8H49.1073Z" fill="#469D49"/>
</svg>
