<svg width="90" height="98" viewBox="0 0 90 98" fill="none" xmlns="http://www.w3.org/2000/svg">
<path d="M86.4485 81.2623C85.1266 78.9793 82.1896 78.1924 79.8894 79.5012C79.8854 79.5032 79.8813 79.5072 79.8753 79.5092L77.0789 81.1029L73.8646 75.5887L75.2628 74.7919C76.7916 73.9074 77.3159 71.9651 76.436 70.4411L74.8289 67.6681L76.2271 66.8712C78.5856 65.6481 79.4996 62.7575 78.2641 60.4188C77.0287 58.0801 74.1157 57.1736 71.7572 58.3988C71.6367 58.4605 71.5202 58.5283 71.4057 58.6L70.0075 59.3968L52.3289 29.037C51.445 27.5091 49.4822 26.9812 47.9414 27.8577L46.3342 25.1006C45.9063 24.3735 45.2092 23.8416 44.3896 23.6185C43.5659 23.3934 42.684 23.5089 41.9467 23.9372L38.7324 18.4231C37.8545 16.8971 35.8979 16.3652 34.359 17.2358C34.355 17.2378 34.349 17.2417 34.3449 17.2437L34.3128 17.2597L23.8824 0L21.1182 1.62556L31.5325 18.8534C30.8072 19.2837 30.2769 19.9729 30.0539 20.7817C29.8289 21.5985 29.9454 22.473 30.3753 23.2041L33.5896 28.7183C32.5952 29.294 31.9824 30.3498 31.9824 31.4913C31.9824 32.0451 32.1331 32.591 32.4164 33.0691L34.0235 35.8262C33.2862 36.2525 32.7479 36.9517 32.5289 37.7705C32.3039 38.5872 32.4204 39.4618 32.8503 40.1929L42.8628 57.3888L45.6432 55.7951L35.6307 38.5992L49.5485 30.6307L51.1557 33.3878L44.1967 37.372L45.8039 40.1291L52.7628 36.1449L54.37 38.902L50.1914 41.2925L51.7985 44.0496L55.9771 41.6591L57.5842 44.4321L50.6253 48.4163L52.2325 51.1734L59.1914 47.1892L60.7985 49.9463L56.6199 52.3368L58.2271 55.0939L62.4057 52.7033L64.0128 55.4604L57.0539 59.4446L58.661 62.2177L65.62 58.2334L67.2271 60.9905L53.3092 68.959L47.4753 58.9506L44.6949 60.5443L50.5289 70.5527L49.1307 71.3495C46.8224 72.6663 46.0289 75.5907 47.3568 77.8777C48.2206 79.3658 49.8237 80.2822 51.5575 80.2742C52.4012 80.2742 53.2289 80.0511 53.9521 79.6208L55.3503 78.8239L56.9574 81.5969C57.8394 83.1189 59.7961 83.6429 61.3309 82.7683C61.3349 82.7663 61.3409 82.7623 61.3449 82.7603L62.7432 81.9635L65.9575 87.4777L63.161 89.0714C60.8528 90.3921 60.0612 93.3166 61.3932 95.6055C62.7251 97.8944 65.6742 98.6793 67.9824 97.3585L84.6967 87.7964C86.999 86.4716 87.7845 83.5472 86.4485 81.2623ZM33.1557 21.6104L35.9521 20.0168L39.1664 25.5309L36.3699 27.1246L33.1557 21.6104ZM36.8039 34.2325L35.1967 31.4754L43.5539 26.6943L45.161 29.4514L36.8039 34.2325ZM52.3449 76.8637C51.5595 77.2721 50.5871 76.9693 50.1753 76.1904C49.7876 75.4573 50.0327 74.5508 50.7378 74.1066L73.0128 61.3571C73.7983 60.9487 74.7706 61.2515 75.1824 62.0304C75.5702 62.7635 75.3251 63.6699 74.6199 64.1142L52.3449 76.8637ZM59.7378 80.0033L58.1307 77.2302L72.0485 69.2618L73.6557 72.0348L59.7378 80.0033ZM65.5235 80.3698L71.0842 77.1824L74.2985 82.6966L68.7378 85.884L65.5235 80.3698ZM83.8289 84.0672C83.7204 84.4755 83.4552 84.8242 83.0896 85.0393L66.3753 94.6015C65.6079 95.0338 64.6316 94.7708 64.1896 94.0118C63.9686 93.6472 63.9104 93.209 64.0289 92.8006C64.1374 92.3922 64.4025 92.0436 64.7682 91.8284L81.4824 82.2663C81.7215 82.1268 81.9927 82.0551 82.2699 82.0591C82.8465 82.0571 83.3809 82.3599 83.6682 82.856C83.8891 83.2205 83.9474 83.6588 83.8289 84.0672Z" fill="#469D49"/>
<path d="M41.7853 66.1541V83.6846H6.42815V80.4973H3.21387V88.4657C3.21387 92.8663 6.81186 96.4342 11.2496 96.4342H38.571C42.1208 96.4342 44.9996 93.5795 44.9996 90.0594V66.1541H41.7853ZM41.7853 90.0594C41.7793 91.8184 40.3449 93.2408 38.571 93.2468H11.2496C8.58976 93.2388 6.43619 91.1033 6.42815 88.4657V86.872H41.7853V90.0594Z" fill="#469D49"/>
<path d="M22.4996 80.4973H25.7139C27.4898 80.4973 28.9282 79.071 28.9282 77.3099V75.7163H30.5353C32.3112 75.7163 33.7496 74.2899 33.7496 72.5289V69.3415C33.7496 67.5805 32.3112 66.1541 30.5353 66.1541H28.9282V64.5604C28.9282 62.7994 27.4898 61.373 25.7139 61.373H22.4996C20.7237 61.373 19.2853 62.7994 19.2853 64.5604V66.1541H17.6782C15.9023 66.1541 14.4639 67.5805 14.4639 69.3415V72.5289C14.4639 74.2899 15.9023 75.7163 17.6782 75.7163H19.2853V77.3099C19.2853 79.071 20.7237 80.4973 22.4996 80.4973ZM17.6782 72.5289V69.3415H20.8924C21.7804 69.3415 22.4996 68.6283 22.4996 67.7478V64.5604H25.7139V67.7478C25.7139 68.6283 26.4331 69.3415 27.321 69.3415H30.5353V72.5289H27.321C26.4331 72.5289 25.7139 73.2421 25.7139 74.1226V77.3099H22.4996V74.1226C22.4996 73.2421 21.7804 72.5289 20.8924 72.5289H17.6782Z" fill="#469D49"/>
<path d="M38.5714 54.9983V58.1857H6.42857V77.2622H3.21429V51.8109C1.4404 51.8049 0.00602679 50.3826 0 48.6235V43.8425C0.00803571 41.2049 2.16161 39.0694 4.82143 39.0614H28.9286V42.2488H4.82143C3.93348 42.2488 3.21429 42.962 3.21429 43.8425V48.6235H33.75V51.8109H6.42857V54.9983H38.5714Z" fill="#469D49"/>
<path d="M89.9996 21.5307V15.156H86.7853V16.7496H83.4424C83.1772 14.9089 82.446 13.1638 81.321 11.6757L83.6875 9.32903L84.8246 10.4566L87.0966 8.20348L82.5484 3.69732L80.2763 5.9504L81.4134 7.07794L79.0469 9.42266C77.5462 8.30707 75.7864 7.58194 73.9301 7.31899V4.00411H75.5373V0.812744H69.1087V4.00012H70.7159V7.315C68.8596 7.57796 67.0998 8.30309 65.5991 9.41867L63.2326 7.07395L64.3696 5.94642L62.0975 3.69334L57.5533 8.1995L59.8254 10.4526L60.9625 9.32504L63.327 11.6718C62.202 13.1599 61.4708 14.9049 61.2056 16.7457H57.8627V15.152H54.6484V21.5267H57.8627V19.933H61.2056C61.4708 21.7738 62.202 23.5188 63.327 25.007L60.9605 27.3537L59.8234 26.2261L57.5513 28.4792L62.0955 32.9854L64.3676 30.7323L63.2306 29.6048L65.6011 27.26C67.1018 28.3756 68.8616 29.1007 70.7179 29.3637V32.6786H69.1107V35.866H75.5393V32.6786H73.9321V29.3637C75.7884 29.1007 77.5482 28.3756 79.0489 27.26L81.4154 29.6067L80.2783 30.7343L82.5504 32.9874L87.0946 28.4812L84.8225 26.2241L83.6855 27.3517L81.321 25.005C82.446 23.5169 83.1772 21.7718 83.4424 19.9311H86.7853V21.5247H89.9996V21.5307ZM72.321 26.3118C67.8833 26.3118 64.2853 22.7439 64.2853 18.3433C64.2853 13.9428 67.8833 10.3749 72.321 10.3749C76.7587 10.3749 80.3567 13.9428 80.3567 18.3433C80.3507 22.7419 76.7567 26.3058 72.321 26.3118Z" fill="#469D49"/>
<path d="M67.5 15.156H70.7143V18.3434H67.5V15.156Z" fill="#469D49"/>
<path d="M73.9287 18.3434H77.143V21.5308H73.9287V18.3434Z" fill="#469D49"/>
</svg>
