<svg width="28" height="28" viewBox="0 0 28 28" fill="none" xmlns="http://www.w3.org/2000/svg">
<path d="M13.9999 26.4773C7.10896 26.4773 1.52246 20.8913 1.52246 13.9999C1.52246 7.10843 7.10896 1.52246 13.9999 1.52246C20.8908 1.52246 26.4773 7.10897 26.4773 13.9999C26.4773 20.8908 20.8913 26.4773 13.9999 26.4773Z" stroke="white" stroke-width="0.5"/>
<g clip-path="url(#clip0_181_3126)">
<path d="M16.4917 10.9479C16.3797 10.9479 16.2723 10.9806 16.179 11.0413C16.0857 11.1019 16.0157 11.1906 15.9737 11.2933C15.9317 11.3959 15.9223 11.5079 15.941 11.6153C15.9597 11.7226 16.0157 11.8253 16.095 11.8999C16.1743 11.9793 16.2723 12.0306 16.3797 12.0539C16.487 12.0773 16.599 12.0633 16.7017 12.0213C16.8043 11.9793 16.893 11.9093 16.9537 11.8159C17.0143 11.7226 17.047 11.6153 17.047 11.5033C17.047 11.3539 16.9863 11.2139 16.8837 11.1066C16.781 10.9993 16.6363 10.9433 16.487 10.9433L16.4917 10.9479ZM18.6383 12.0773C18.629 11.6899 18.559 11.3073 18.4237 10.9433C18.307 10.6306 18.1203 10.3506 17.8823 10.1173C17.649 9.87925 17.369 9.69259 17.0563 9.58059C16.6923 9.44525 16.3097 9.37059 15.9223 9.36125C15.4277 9.33325 15.269 9.33325 13.9997 9.33325C12.7303 9.33325 12.5717 9.33325 12.077 9.36125C11.6897 9.37059 11.307 9.44525 10.943 9.58059C10.6303 9.69725 10.3503 9.87925 10.117 10.1173C9.87901 10.3506 9.69234 10.6306 9.58034 10.9433C9.44501 11.3073 9.37034 11.6899 9.36101 12.0773C9.33301 12.5719 9.33301 12.7306 9.33301 13.9999C9.33301 15.2693 9.33301 15.4279 9.36101 15.9226C9.37034 16.3099 9.44501 16.6926 9.58034 17.0566C9.69234 17.3693 9.87901 17.6493 10.117 17.8826C10.3503 18.1206 10.6303 18.3026 10.943 18.4193C11.307 18.5546 11.6897 18.6293 12.077 18.6386C12.5717 18.6666 12.7303 18.6666 13.9997 18.6666C15.269 18.6666 15.4277 18.6666 15.9223 18.6386C16.3097 18.6293 16.6923 18.5546 17.0563 18.4193C17.369 18.3073 17.649 18.1206 17.8823 17.8826C18.1203 17.6493 18.307 17.3693 18.4237 17.0566C18.559 16.6926 18.629 16.3099 18.6383 15.9226C18.6383 15.4279 18.6663 15.2693 18.6663 13.9999C18.6663 12.7306 18.6663 12.5719 18.6383 12.0773ZM17.7983 15.8666C17.7983 16.1606 17.7423 16.4546 17.6397 16.7346C17.565 16.9399 17.4437 17.1219 17.2897 17.2713C17.1403 17.4253 16.9537 17.5466 16.753 17.6213C16.473 17.7239 16.179 17.7753 15.885 17.7799C15.4183 17.8033 15.2457 17.8079 14.0183 17.8079C12.791 17.8079 12.6183 17.8079 12.1517 17.7799C11.8437 17.7846 11.5357 17.7379 11.2463 17.6399C11.055 17.5606 10.8777 17.4393 10.733 17.2899C10.579 17.1406 10.4577 16.9586 10.3877 16.7533C10.2757 16.4733 10.2103 16.1699 10.201 15.8666C10.201 15.3999 10.173 15.2273 10.173 13.9999C10.173 12.7726 10.173 12.5999 10.201 12.1333C10.201 11.8299 10.257 11.5313 10.3643 11.2466C10.4483 11.0506 10.5743 10.8733 10.733 10.7333C10.873 10.5746 11.0503 10.4439 11.2463 10.3599C11.531 10.2573 11.8297 10.2059 12.133 10.2013C12.5997 10.2013 12.7723 10.1733 13.9997 10.1733C15.227 10.1733 15.3997 10.1733 15.8663 10.2013C16.1603 10.2013 16.4543 10.2573 16.7343 10.3599C16.9443 10.4393 17.1357 10.5653 17.2897 10.7333C17.4437 10.8779 17.5603 11.0506 17.6397 11.2466C17.7423 11.5313 17.7983 11.8299 17.7983 12.1333C17.8217 12.5999 17.8263 12.7726 17.8263 13.9999C17.8263 15.2273 17.8217 15.3999 17.7983 15.8666ZM13.9997 11.6059C13.5283 11.6059 13.0617 11.7459 12.6697 12.0119C12.2777 12.2733 11.9697 12.6513 11.7877 13.0853C11.6057 13.5239 11.559 14.0046 11.6523 14.4666C11.7457 14.9286 11.9743 15.3579 12.3103 15.6893C12.6463 16.0253 13.071 16.2493 13.5377 16.3426C13.9997 16.4359 14.485 16.3893 14.919 16.2073C15.3577 16.0253 15.731 15.7173 15.9923 15.3253C16.2537 14.9333 16.3937 14.4713 16.3937 13.9953C16.3937 13.6826 16.333 13.3699 16.2117 13.0759C16.0903 12.7866 15.913 12.5206 15.6937 12.2966C15.4697 12.0726 15.2037 11.8999 14.9143 11.7786C14.625 11.6573 14.3123 11.5966 13.995 11.6013L13.9997 11.6059ZM13.9997 15.5539C13.6917 15.5539 13.393 15.4606 13.1363 15.2926C12.8797 15.1199 12.6837 14.8773 12.5623 14.5973C12.4457 14.3126 12.413 13.9999 12.4737 13.7013C12.5343 13.3979 12.6837 13.1226 12.8983 12.9033C13.1177 12.6839 13.393 12.5393 13.6963 12.4786C13.9997 12.4179 14.3123 12.4506 14.5923 12.5673C14.877 12.6839 15.1197 12.8846 15.2877 13.1413C15.4603 13.3979 15.549 13.6966 15.549 14.0046C15.549 14.2099 15.507 14.4106 15.4323 14.5973C15.353 14.7839 15.241 14.9566 15.0963 15.1013C14.9517 15.2459 14.779 15.3579 14.5923 15.4373C14.4057 15.5166 14.2003 15.5539 13.9997 15.5539Z" fill="white"/>
</g>
<defs>
<clipPath id="clip0_181_3126">
<rect width="9.33333" height="9.33333" fill="white" transform="translate(9.33301 9.33325)"/>
</clipPath>
</defs>
</svg>
