<svg width="184" height="60" viewBox="0 0 184 60" fill="none" xmlns="http://www.w3.org/2000/svg">
<path d="M72.776 0H72.1543V60H72.776V0Z" fill="#909194"/>
<path d="M50.5704 3.39879C42.1452 3.39879 37.9294 7.66508 33.7136 16.2106C29.4978 7.67156 25.2819 3.39879 16.8568 3.39879C7.55091 3.39879 0 11.0509 0 20.4769C0 37.555 16.8568 39.5231 33.7136 56.6012C50.5704 39.5231 67.4272 37.555 67.4272 20.4769C67.4272 11.0509 59.8763 3.39879 50.5704 3.39879Z" fill="#469D49"/>
<path d="M24.6278 25.4035C24.6278 21.7652 24.6278 18.1269 24.6408 14.4886C24.6408 14.372 24.8545 14.1519 24.9775 14.1454C25.9748 14.1195 26.9721 14.1195 27.9694 14.1454C28.086 14.1454 28.2997 14.3591 28.2997 14.4756C28.3191 17.5054 28.3126 20.5416 28.3256 23.5714C28.3256 23.688 28.5263 23.8951 28.6364 23.8951C32.1205 23.9145 35.6045 23.9145 39.0885 23.8951C39.1792 23.8951 39.354 23.7203 39.354 23.6232C39.367 20.5675 39.3605 17.5119 39.3799 14.4562C39.3799 14.3461 39.5807 14.139 39.6908 14.1325C40.7205 14.1066 41.7501 14.1001 42.7733 14.1325C42.9093 14.1325 43.1425 14.3785 43.1425 14.5145C43.1619 21.7976 43.1619 29.0807 43.1425 36.3638C43.1425 36.4674 42.9611 36.6552 42.864 36.6552C41.7825 36.6746 40.701 36.6746 39.6196 36.6552C39.5289 36.6552 39.3735 36.4868 39.367 36.3962C39.354 33.5347 39.3605 30.6668 39.3411 27.8054C39.3411 27.7082 39.1598 27.527 39.0626 27.527C35.5851 27.514 32.1075 27.514 28.6299 27.527C28.5198 27.527 28.3061 27.7471 28.3061 27.8636C28.2867 30.6927 28.2932 33.5153 28.2802 36.3444C28.2802 36.4545 28.0795 36.6552 27.9694 36.6552C26.9462 36.6811 25.9295 36.6811 24.9063 36.6552C24.8027 36.6552 24.6214 36.4674 24.6214 36.3638C24.6084 32.7061 24.6084 29.0419 24.6084 25.3841L24.6278 25.4035Z" fill="white"/>
<path d="M46.2705 25.4294C46.2705 21.7911 46.2705 18.1528 46.2834 14.5145C46.2834 14.385 46.5101 14.1454 46.6331 14.1454C49.1587 14.126 51.6843 14.0937 54.2035 14.1454C55.3562 14.1713 56.5218 14.2879 57.6551 14.5209C58.9179 14.7799 60.2001 15.1942 61.1521 16.0941C61.8385 16.7479 62.402 17.596 62.8358 18.4506C63.6518 20.0561 63.6453 21.8364 63.464 23.565C63.2827 25.3259 62.6869 26.9961 61.2233 28.1096C60.4786 28.6793 59.572 29.0807 58.6848 29.4044C55.9714 30.382 53.1349 29.9935 50.3438 30.0842C50.2078 30.0842 49.9682 30.3366 49.9617 30.4726C49.9358 32.4407 49.9488 34.4087 49.9294 36.3768C49.9294 36.4804 49.7416 36.6681 49.6379 36.6681C48.6277 36.6875 47.611 36.694 46.6007 36.6681C46.4842 36.6681 46.2705 36.4545 46.264 36.3379C46.2446 32.6996 46.251 29.0613 46.251 25.423L46.2705 25.4294Z" fill="white"/>
<path d="M53.3287 19.5447C52.3768 19.5447 51.4248 19.5382 50.4729 19.5576C50.3693 19.5576 50.1879 19.7324 50.1879 19.8295C50.1685 20.9301 50.0649 22.0501 50.2138 23.1312C50.3239 23.9663 50.5959 24.8662 51.0686 25.546C51.8458 26.6595 53.0697 27.2162 54.3973 27.3716C55.414 27.4881 56.4113 27.3587 57.3956 26.9249C59.047 26.1869 59.8111 24.8274 60.0313 23.1506C60.1802 22.0436 60.0702 20.9042 60.0572 19.7777C60.0572 19.7 59.9083 19.5641 59.8306 19.5576C59.4161 19.5317 59.0016 19.5511 58.5807 19.5382C58.5483 19.5382 58.4836 19.4217 58.4965 19.3893C58.9239 18.5542 59.3643 17.719 59.7917 16.8839C59.85 16.7609 59.8694 16.4825 59.8629 16.4825C59.5586 16.4048 59.1441 16.2041 58.9563 16.3401C58.6001 16.5926 58.367 17.0263 58.0885 17.3953C57.7388 17.8485 57.4021 18.3146 57.0589 18.7743C56.7286 19.208 56.4696 19.6612 55.7572 19.577C54.9607 19.4799 54.1447 19.5576 53.3352 19.5576L53.3287 19.5447Z" fill="#0091CA"/>
<path d="M15.1924 36.9983C14.0915 36.8753 13.1784 36.8429 12.2977 36.6616C10.7564 36.3444 9.27989 35.8006 7.96528 34.8878C7.31121 34.4346 6.65715 33.9814 6.01603 33.5088C5.93832 33.4506 5.89947 33.1916 5.95775 33.1204C6.63772 32.2529 7.32417 31.3984 8.05594 30.5697C8.11423 30.505 8.49631 30.6862 8.69058 30.8157C9.52598 31.3466 10.3096 31.9551 11.1773 32.4277C12.207 32.9845 13.3273 33.3146 14.5189 33.2887C15.2507 33.2693 15.9954 33.3211 16.7013 33.1722C18.2296 32.8485 19.3305 31.6638 19.0261 29.9353C18.8707 29.0678 18.2555 28.4527 17.4266 28.1485C16.3645 27.76 15.296 27.3975 14.2145 27.0609C13.4309 26.8148 12.5826 26.7307 11.8379 26.407C10.7564 25.9409 9.72673 25.3582 8.70354 24.7756C7.69977 24.2059 7.2076 23.183 6.96152 22.1407C6.74781 21.2085 6.74133 20.1921 6.82552 19.2275C6.89676 18.4635 7.07808 17.6155 7.50549 17.0069C8.07537 16.1847 8.85896 15.4726 9.66845 14.877C10.6334 14.1713 11.7861 13.8412 12.9906 13.7829C13.8843 13.7376 14.7909 13.5822 15.6587 13.6987C16.8567 13.8541 18.0742 14.1066 19.201 14.5339C20.2436 14.9353 21.1826 15.6215 22.1346 16.2236C22.1929 16.2559 22.0439 16.735 21.9079 16.9422C21.4546 17.6284 20.9624 18.2887 20.4767 18.9491C20.1206 19.4346 19.9781 18.8261 19.7644 18.7484C19.1686 18.5218 18.6376 18.1075 18.0353 17.9003C17.1805 17.6025 16.2998 17.3371 15.4061 17.2076C14.7132 17.1105 13.9814 17.1688 13.2885 17.2853C12.7056 17.3889 12.1422 17.6349 11.5983 17.8938C10.9572 18.1981 10.6852 18.8131 10.6463 19.4864C10.5427 21.079 11.0996 21.9141 12.615 22.4256C13.69 22.7881 14.7974 23.0535 15.8724 23.4225C17.2647 23.9016 18.6829 24.3548 20.004 24.9892C21.2603 25.5978 22.3029 26.5559 22.6073 28.0255C22.8145 29.0419 23.0023 30.1101 22.9311 31.1394C22.821 32.7579 22.0245 34.098 20.7617 35.1273C19.9069 35.82 18.9679 36.3444 17.8799 36.5516C16.9409 36.7264 15.9889 36.8688 15.2183 36.9983H15.1924Z" fill="white"/>
<path d="M130.276 42.9478V44.8252C130.536 44.5145 130.756 44.2231 131.008 43.9707C131.5 43.4786 132.083 43.129 132.744 42.9348C133.145 42.8183 133.566 42.7277 133.987 42.6824C134.279 42.65 134.576 42.7018 134.874 42.7341C135.451 42.7989 135.995 42.9478 136.5 43.2391C137.089 43.5757 137.549 44.0354 137.879 44.6375C137.937 44.7475 138.002 44.8576 138.086 45C138.19 44.8705 138.268 44.7734 138.352 44.6763C139.032 43.9124 139.809 43.2844 140.793 42.9737C141.616 42.7147 142.458 42.5788 143.332 42.7536C143.759 42.8377 144.187 42.9154 144.582 43.1032C145.793 43.6923 146.583 44.6245 146.9 45.9646C147.056 46.612 147.088 47.2594 147.081 47.9197C147.081 50.1662 147.081 52.4061 147.081 54.6526C147.081 54.7044 147.081 54.7626 147.081 54.8144C147.075 55.1187 147.049 55.1511 146.751 55.1575C146.201 55.1575 145.644 55.1575 145.093 55.1575C144.964 55.1575 144.834 55.1575 144.711 55.1575C144.517 55.1446 144.478 55.1057 144.465 54.8986C144.465 54.8144 144.465 54.7238 144.465 54.6396C144.465 52.4385 144.472 50.2374 144.459 48.0363C144.459 47.363 144.31 46.7091 143.941 46.1329C143.591 45.5891 143.092 45.2849 142.458 45.1813C141.978 45.0971 141.512 45.0906 141.039 45.1877C140.314 45.3366 139.718 45.6927 139.239 46.2689C138.825 46.7674 138.663 47.363 138.592 47.9909C138.559 48.3017 138.533 48.6124 138.533 48.9232C138.533 50.8524 138.533 52.7816 138.533 54.7173C138.533 54.8468 138.533 54.9698 138.533 55.0863C138.274 55.177 136.396 55.1964 135.995 55.1187C135.988 54.9957 135.969 54.8597 135.969 54.7238C135.969 52.568 135.988 50.4122 135.956 48.2499C135.943 47.5442 135.865 46.8321 135.522 46.1847C135.224 45.628 134.764 45.3172 134.156 45.1877C133.644 45.0777 133.126 45.0777 132.64 45.2136C131.623 45.4985 130.717 46.1265 130.406 47.3759C130.296 47.8032 130.289 48.224 130.289 48.6513C130.289 50.6582 130.289 52.6651 130.289 54.672C130.289 54.7562 130.289 54.8468 130.289 54.9309C130.289 55.0928 130.205 55.164 130.05 55.164C129.856 55.164 129.668 55.164 129.473 55.164C128.981 55.164 128.496 55.164 128.003 55.164C127.654 55.164 127.608 55.1187 127.608 54.7756C127.608 50.956 127.608 47.1364 127.608 43.3233C127.608 42.9543 127.628 42.9284 127.984 42.9284C128.645 42.9284 129.305 42.9284 129.966 42.9284C130.056 42.9284 130.153 42.9413 130.289 42.9543L130.276 42.9478Z" fill="#0091CA"/>
<path d="M91.369 26.6724C91.369 26.4912 91.369 26.3682 91.369 26.2387C91.369 24.2447 91.369 22.2508 91.369 20.2503C91.369 20.1662 91.369 20.0755 91.369 19.9914C91.382 19.7907 91.4208 19.7454 91.628 19.7454C92.3922 19.7454 93.1628 19.7454 93.927 19.7454C94.1213 19.7454 94.1601 19.8036 94.1795 20.0043C94.1795 20.082 94.1795 20.1532 94.1795 20.2309C94.1795 25.2546 94.1795 30.2849 94.1795 35.3086C94.1795 35.6409 94.0133 35.8071 93.6809 35.8071C93.0398 35.8071 92.4052 35.8071 91.764 35.8071C91.6475 35.8071 91.5374 35.7941 91.382 35.7877C91.3561 35.2309 91.3755 34.6936 91.369 34.1562C91.369 33.6254 91.369 33.101 91.369 32.5701V30.9517C91.369 30.4273 91.369 29.9029 91.369 29.385C91.0841 29.3008 83.9865 29.2944 83.6432 29.3785C83.6368 31.4955 83.6432 33.6254 83.6432 35.7359C83.3713 35.8136 81.3508 35.8265 80.9363 35.7682C80.9234 35.697 80.8975 35.6193 80.8975 35.5352C80.8975 35.2568 80.8975 34.972 80.8975 34.6936C80.8975 29.8835 80.8975 25.0734 80.8975 20.2633C80.8975 19.9137 81.0658 19.7389 81.4026 19.7389C82.0307 19.7389 82.6589 19.7389 83.2871 19.7389C83.6238 19.7389 83.6497 19.7713 83.6497 20.1079C83.6497 22.1342 83.6497 24.1606 83.6497 26.1934C83.6497 26.5084 83.8008 26.666 84.103 26.666C86.389 26.666 88.6815 26.666 90.9675 26.666C91.0841 26.666 91.2006 26.666 91.3755 26.666L91.369 26.6724Z" fill="#469D49"/>
<path d="M109.268 6.18904C109.488 5.91067 109.657 5.65818 109.87 5.45102C110.272 5.04964 110.712 4.70652 111.237 4.46051C112.131 4.04618 113.057 4.01382 114.009 4.13682C114.999 4.2663 115.893 4.64178 116.683 5.2568C117.648 6.00777 118.334 6.96591 118.684 8.13768C119.027 9.28356 119.053 10.4618 118.865 11.6465C118.697 12.7277 118.283 13.6923 117.603 14.5274C117.065 15.1877 116.431 15.7316 115.66 16.12C114.825 16.5408 113.937 16.7415 113.011 16.6962C112.331 16.6638 111.671 16.489 111.056 16.1718C110.408 15.8351 109.832 15.4079 109.281 14.8123C109.268 14.9806 109.255 15.0777 109.255 15.1748C109.255 16.9422 109.255 18.7095 109.255 20.4834C109.255 20.9625 109.242 20.9754 108.77 20.9754C108.187 20.9754 107.597 20.9754 107.015 20.9754C106.626 20.9754 106.574 20.9236 106.574 20.5222C106.574 17.8679 106.574 15.2136 106.574 12.5593C106.574 9.96979 106.574 7.38024 106.574 4.79068C106.574 4.713 106.574 4.64178 106.574 4.5641C106.587 4.31809 106.62 4.27277 106.853 4.27277C107.552 4.27277 108.258 4.27277 108.964 4.27277C109.21 4.27277 109.249 4.31809 109.255 4.58352C109.255 5.05611 109.255 5.53518 109.255 6.00777C109.255 6.05309 109.262 6.09193 109.268 6.18257V6.18904ZM116.372 10.4165C116.34 10.1381 116.32 9.85974 116.282 9.58783C116.126 8.50022 115.563 7.64567 114.708 7.03065C113.672 6.28615 112.526 6.20199 111.347 6.68753C110.609 6.9918 110.097 7.56151 109.709 8.24774C109.437 8.72681 109.294 9.24472 109.229 9.80147C109.165 10.3453 109.178 10.8891 109.288 11.4005C109.488 12.3392 109.955 13.1226 110.758 13.6923C111.47 14.1972 112.247 14.3785 113.076 14.2879C114.203 14.1713 115.09 13.5887 115.731 12.6435C116.184 11.9702 116.346 11.2193 116.372 10.41V10.4165Z" fill="#0091CA"/>
<path d="M83.637 50.4316V50.8783C83.637 52.1213 83.637 53.3578 83.637 54.6008C83.637 54.6785 83.637 54.7497 83.637 54.8274C83.6305 55.1122 83.5982 55.1446 83.3262 55.1511C83.1449 55.1511 82.9635 55.1511 82.7822 55.1511C82.2577 55.1511 81.7396 55.1511 81.215 55.1511C80.9171 55.1511 80.8912 55.1187 80.8848 54.808C80.8848 54.5619 80.8848 54.3095 80.8848 54.0635C80.8848 49.221 80.8848 44.3785 80.8848 39.536C80.8848 39.2037 81.0488 39.0376 81.3769 39.0376C82.9959 39.0376 84.6149 39.0117 86.2339 39.0505C86.9721 39.0699 87.7168 39.0699 88.4551 39.2059C89.1156 39.3224 89.7632 39.4648 90.3849 39.7173C90.9419 39.9439 91.434 40.2805 91.8614 40.7078C92.3601 41.1998 92.7033 41.789 92.9235 42.4493C93.066 42.8701 93.1372 43.3233 93.2084 43.77C93.325 44.5209 93.2991 45.2654 93.1825 46.0164C93.0854 46.6638 92.9041 47.2723 92.5997 47.8485C92.2565 48.5024 91.7643 49.0073 91.1491 49.3958C90.3202 49.9137 89.4135 50.1662 88.4551 50.3151C86.9915 50.5417 85.5215 50.3863 84.058 50.4381C83.9349 50.4381 83.8054 50.4381 83.6305 50.4381L83.637 50.4316ZM83.6629 47.8744C83.7471 47.8874 83.7924 47.9003 83.8313 47.9003C85.1071 47.8679 86.3828 47.9586 87.6521 47.8485C88.0795 47.8097 88.4875 47.719 88.8825 47.5637C89.297 47.4018 89.6531 47.1623 89.8992 46.7739C90.3331 46.0941 90.4497 45.3366 90.4562 44.5598C90.4562 44.2102 90.359 43.8606 90.2943 43.5175C90.1842 42.9284 89.828 42.5205 89.3358 42.2162C88.6559 41.7954 87.8852 41.666 87.1146 41.6401C86.072 41.6012 85.0293 41.6271 83.9867 41.6271C83.8831 41.6271 83.7795 41.6401 83.6564 41.6465V47.8744H83.6629Z" fill="#0091CA"/>
<path d="M89.9507 4.07208C89.3873 3.63185 88.7915 3.29521 88.1504 3.0751C87.4769 2.84204 86.7969 2.64782 86.0716 2.66077C85.8709 2.66077 85.6636 2.66725 85.4629 2.66077C84.8153 2.63488 84.2195 2.80967 83.695 3.1981C83.546 3.30816 83.3971 3.45706 83.3194 3.62538C82.8466 4.58352 83.1251 5.64523 84.09 6.1243C84.6534 6.40268 85.2427 6.60337 85.8514 6.75874C86.6026 6.95296 87.3474 7.16012 88.0856 7.39318C89.057 7.69746 89.9636 8.14416 90.7407 8.81744C91.1293 9.15408 91.3948 9.60725 91.5826 10.0928C91.7834 10.6301 91.887 11.1804 91.887 11.7631C91.887 12.2745 91.8805 12.7795 91.7316 13.265C91.5956 13.7182 91.4013 14.1519 91.1163 14.5339C90.5076 15.3625 89.7111 15.9193 88.7591 16.2818C87.71 16.6767 86.6285 16.7933 85.5341 16.7026C84.1159 16.5861 82.7689 16.2106 81.5126 15.4985C80.9168 15.1554 80.3858 14.7281 79.8418 14.3202C79.7576 14.2555 79.6928 14.1713 79.5957 14.0613C80.1591 13.3686 80.7096 12.6953 81.2859 11.9896C81.5838 12.2227 81.8623 12.4363 82.1407 12.6435C82.9308 13.2262 83.7856 13.6599 84.744 13.8865C85.2945 14.016 85.8449 14.1519 86.4084 14.1131C86.9588 14.0807 87.5028 13.9771 88.0079 13.7246C88.662 13.401 89.0246 12.8442 89.0505 12.1385C89.07 11.5688 88.8563 11.038 88.3576 10.6884C87.9691 10.4165 87.5287 10.2417 87.0883 10.1057C86.4796 9.918 85.8644 9.76263 85.2492 9.59431C84.2195 9.30945 83.1769 9.04403 82.2508 8.46785C81.3766 7.93052 80.7031 7.21839 80.4246 6.19551C80.3275 5.83945 80.2239 5.47044 80.2562 5.08201C80.2757 4.86837 80.2562 4.64826 80.2562 4.43462C80.2821 3.101 80.8196 2.03928 81.8752 1.23004C82.4451 0.789818 83.0862 0.498493 83.7532 0.31075C84.5368 0.0906375 85.3528 -0.0388402 86.1752 0.0323726C87.0171 0.103585 87.8654 0.213641 88.6749 0.492019C89.5492 0.796291 90.391 1.17825 91.1358 1.75443C91.4013 1.96159 91.4207 2.0587 91.2264 2.34355C90.8962 2.81614 90.5659 3.29521 90.2291 3.76781C90.1514 3.87786 90.0543 3.97497 89.9572 4.0915L89.9507 4.07208Z" fill="#0091CA"/>
<path d="M145.611 35.7812H143.014C143.008 35.6323 142.995 35.5093 142.995 35.3863C142.995 33.2175 143.008 31.0488 142.982 28.88C142.975 28.2067 142.865 27.5335 142.516 26.9249C142.256 26.4782 141.907 26.148 141.428 25.9862C141.039 25.8502 140.631 25.7337 140.21 25.7661C139.096 25.8567 138.157 26.284 137.542 27.2874C137.27 27.7341 137.121 28.2326 137.115 28.757C137.108 30.9581 137.115 33.1593 137.115 35.3604C137.115 35.4899 137.115 35.6129 137.115 35.7294C136.849 35.8265 134.816 35.8395 134.453 35.7553C134.447 35.6647 134.434 35.5611 134.434 35.451C134.434 30.0259 134.434 24.6008 134.434 19.1757C134.434 19.1109 134.434 19.0462 134.434 18.9814C134.44 18.852 134.511 18.7808 134.634 18.7808C134.77 18.7808 134.913 18.7808 135.049 18.7808C135.599 18.7808 136.156 18.7808 136.707 18.7808C137.089 18.7808 137.108 18.8002 137.108 19.1821C137.108 21.1567 137.108 23.1312 137.108 25.1057C137.108 25.2158 137.108 25.3323 137.108 25.5201C137.251 25.3259 137.341 25.1964 137.445 25.0734C138.118 24.2318 138.98 23.7203 140.029 23.4873C141.039 23.2672 142.03 23.3448 142.969 23.7268C143.966 24.1347 144.73 24.8403 145.158 25.8697C145.443 26.5624 145.605 27.2745 145.605 28.0319C145.605 30.492 145.605 32.9521 145.605 35.4057C145.605 35.5222 145.605 35.6388 145.605 35.7877L145.611 35.7812Z" fill="#469D49"/>
<path d="M97.3653 38.1247V44.8123C97.6309 44.508 97.851 44.2167 98.1036 43.9642C98.5958 43.4722 99.1786 43.1226 99.8456 42.9284C100.254 42.8118 100.668 42.7212 101.089 42.6759C101.38 42.6435 101.685 42.6953 101.976 42.7277C102.397 42.7795 102.805 42.8701 103.207 43.0319C104.288 43.4722 105.052 44.2361 105.486 45.3302C105.745 45.9905 105.875 46.6897 105.875 47.4083C105.875 49.836 105.875 52.2637 105.875 54.6914C105.875 54.7691 105.875 54.8403 105.875 54.918C105.875 55.0798 105.79 55.1511 105.635 55.1511C105.583 55.1511 105.531 55.1511 105.473 55.1511C104.864 55.1511 104.262 55.1511 103.653 55.1511C103.271 55.1511 103.258 55.1316 103.258 54.7497C103.258 52.5486 103.258 50.3474 103.258 48.1463C103.258 47.596 103.142 47.0522 102.948 46.5408C102.689 45.8675 102.203 45.4079 101.516 45.2266C101.121 45.123 100.694 45.1165 100.286 45.123C99.6837 45.1424 99.1268 45.3431 98.6281 45.6992C98.136 46.0488 97.7733 46.5019 97.579 47.0846C97.456 47.4601 97.3718 47.8485 97.3783 48.2564C97.3912 50.3733 97.3783 52.4838 97.3783 54.6008C97.3783 54.6849 97.3783 54.7756 97.3783 54.8597C97.3653 55.0993 97.333 55.1446 97.0998 55.1511C96.4069 55.1511 95.714 55.1511 95.0211 55.1511C94.7555 55.1511 94.7102 55.0863 94.6973 54.8209C94.6973 54.7562 94.6973 54.6914 94.6973 54.6267C94.6973 49.2987 94.6973 43.9707 94.6973 38.6426C94.6973 38.2974 94.8656 38.1247 95.2024 38.1247C95.7852 38.1247 96.3745 38.1247 96.9574 38.1247C97.0739 38.1247 97.1905 38.1247 97.3653 38.1247Z" fill="#0091CA"/>
<path d="M108.045 30.8805H98.7646C98.648 31.1329 98.7516 31.3401 98.8164 31.5343C99.0171 32.1234 99.3798 32.5766 99.8849 32.9391C100.371 33.2887 100.908 33.5218 101.484 33.6319C101.938 33.716 102.404 33.7937 102.877 33.6836C103.168 33.6189 103.466 33.6124 103.751 33.5347C104.425 33.347 105.046 33.0622 105.519 32.5119C105.739 32.2529 105.797 32.2594 106.018 32.5119C106.348 32.8874 106.685 33.2628 107.015 33.6448C107.099 33.7419 107.17 33.852 107.248 33.9555C106.995 34.3181 106.646 34.5511 106.309 34.7907C105.733 35.205 105.104 35.5158 104.425 35.7229C103.932 35.8718 103.427 35.9107 102.929 36.0078C102.236 36.1372 101.543 36.0466 100.869 35.9171C99.7683 35.7035 98.784 35.2115 97.9486 34.4281C97.3787 33.8908 96.8995 33.2887 96.5887 32.5701C96.4138 32.1623 96.3296 31.7091 96.2001 31.2818C96.0447 30.7833 96.0382 30.2654 96.0317 29.7475C96.0253 29.2167 96.0835 28.6858 96.1872 28.1549C96.3167 27.4752 96.5498 26.8472 96.893 26.271C97.1262 25.8761 97.437 25.5265 97.7543 25.1964C98.3631 24.5684 99.0819 24.0829 99.8979 23.7786C100.545 23.5391 101.219 23.3966 101.918 23.3707C102.585 23.3513 103.239 23.4096 103.874 23.5844C104.528 23.7592 105.169 23.9987 105.72 24.426C106.024 24.659 106.341 24.8856 106.613 25.1511C107.306 25.8308 107.714 26.6595 107.928 27.6111C108.019 28.006 108.038 28.3945 108.038 28.7959C108.038 29.3591 108.038 29.9158 108.038 30.4791C108.038 30.5956 108.038 30.7121 108.038 30.8869L108.045 30.8805ZM105.383 28.7182C105.461 28.4916 105.389 28.2974 105.364 28.0967C105.266 27.3328 104.878 26.7631 104.282 26.3099C103.68 25.8567 102.974 25.7272 102.255 25.6431C102.164 25.6301 102.061 25.6366 101.97 25.656C101.64 25.7272 101.303 25.7855 100.986 25.8891C100.131 26.161 99.4122 26.6271 98.9848 27.4687C98.7905 27.8571 98.648 28.2521 98.7581 28.7182H105.389H105.383Z" fill="#469D49"/>
<path d="M122.505 11.6077C122.453 12.0026 122.596 12.3198 122.758 12.6176C123.153 13.3492 123.787 13.8023 124.532 14.1131C124.992 14.3073 125.478 14.3591 125.957 14.4303C126.183 14.4627 126.423 14.4044 126.65 14.385C127.291 14.3332 127.913 14.1908 128.469 13.8541C128.716 13.7052 128.936 13.5175 129.156 13.3427C129.247 13.2715 129.324 13.1744 129.408 13.0967C129.493 13.019 129.577 13.0125 129.661 13.0967C129.687 13.1161 129.706 13.142 129.732 13.1614C130.16 13.6405 130.587 14.1131 131.034 14.6116C130.911 14.7346 130.814 14.8446 130.71 14.9482C129.972 15.6539 129.111 16.1394 128.126 16.4048C127.31 16.6249 126.481 16.7544 125.64 16.7091C124.72 16.6573 123.839 16.4566 123.017 16.0099C122.279 15.615 121.657 15.0906 121.126 14.4562C120.66 13.8994 120.329 13.2585 120.129 12.5593C119.973 12.035 119.908 11.4976 119.844 10.9473C119.759 10.164 119.844 9.40009 120.012 8.64265C120.161 7.96289 120.433 7.32197 120.834 6.73932C121.599 5.63229 122.609 4.86837 123.852 4.4152C124.454 4.19508 125.076 4.07208 125.717 4.0915C126.203 4.10445 126.695 4.10445 127.181 4.17566C127.576 4.23393 127.964 4.35693 128.34 4.49936C129.318 4.86837 130.127 5.48339 130.788 6.2991C131.099 6.68753 131.325 7.12128 131.494 7.59387C131.733 8.25421 131.843 8.94044 131.818 9.6461C131.798 10.164 131.818 10.6819 131.818 11.1998C131.818 11.5818 131.798 11.6012 131.423 11.6012C129.674 11.6012 127.932 11.6012 126.183 11.6012C125.063 11.6012 123.949 11.6012 122.829 11.6012C122.732 11.6012 122.641 11.6077 122.505 11.6142V11.6077ZM122.492 9.37419H129.247C129.234 9.22529 129.227 9.10229 129.208 8.97929C129.188 8.87571 129.149 8.77212 129.13 8.66854C129.052 8.17653 128.845 7.74925 128.515 7.38671C127.88 6.694 127.058 6.41563 126.151 6.35736C125.665 6.32499 125.199 6.41563 124.739 6.55805C124.053 6.77817 123.477 7.16012 123.017 7.72335C122.641 8.18947 122.447 8.72033 122.492 9.37419Z" fill="#0091CA"/>
<path d="M181.235 42.9348H184C183.974 43.0449 183.961 43.1226 183.936 43.1938C183.476 44.3397 183.009 45.4791 182.55 46.6185C182.213 47.4536 181.896 48.3017 181.559 49.1368C181.287 49.8101 180.989 50.4769 180.723 51.1567C180.335 52.1213 179.966 53.0988 179.577 54.0634C179.305 54.7367 179.014 55.41 178.735 56.0833C178.573 56.4782 178.425 56.8796 178.269 57.281C177.868 58.3168 177.175 59.1001 176.203 59.6051C175.536 59.9547 174.805 60.0583 174.04 59.9612C173.283 59.8641 172.603 59.5857 171.994 59.1455C171.489 58.7764 171.45 58.8023 171.761 58.2585C172.026 57.7924 172.272 57.3198 172.538 56.8537C172.577 56.7825 172.635 56.7177 172.706 56.6271C172.784 56.6789 172.855 56.7177 172.92 56.7695C173.458 57.2486 174.06 57.4363 174.772 57.3004C175.2 57.2162 175.517 56.9832 175.763 56.653C175.951 56.4005 176.113 56.1221 176.171 55.7855C176.21 55.5589 176.197 55.3518 176.126 55.1511C175.834 54.3483 175.536 53.5391 175.225 52.7428C174.895 51.8947 174.545 51.0466 174.215 50.1985C173.84 49.2404 173.483 48.2823 173.101 47.3241C172.674 46.243 172.24 45.1748 171.806 44.1001C171.69 43.8153 171.58 43.524 171.469 43.2326C171.444 43.1549 171.431 43.0708 171.411 42.9607C171.515 42.9413 171.592 42.9154 171.67 42.9154C172.415 42.9154 173.16 42.9154 173.904 42.9154C174.092 42.9154 174.183 42.9802 174.254 43.1614C174.643 44.1519 175.051 45.1295 175.446 46.12C175.828 47.0781 176.197 48.0363 176.579 48.9944C176.857 49.6936 177.142 50.3863 177.421 51.079C177.498 51.2667 177.57 51.448 177.647 51.6487C177.816 51.4998 178.619 49.5641 178.897 48.8002C179.26 47.8161 179.668 46.8451 180.056 45.8675C180.445 44.9029 180.834 43.9383 181.229 42.9413L181.235 42.9348Z" fill="#0091CA"/>
<path d="M119.287 35.7877H116.93C116.897 35.3086 116.93 34.849 116.91 34.3375C116.819 34.4087 116.755 34.454 116.703 34.5058C116.178 35.0561 115.563 35.464 114.851 35.7229C114.43 35.8718 113.983 35.9107 113.549 36.0013C113.076 36.0984 112.623 36.0207 112.157 35.9625C111.807 35.9171 111.47 35.833 111.14 35.7229C110.57 35.5417 110.091 35.205 109.664 34.7907C108.731 33.8973 108.44 32.7644 108.576 31.5214C108.725 30.2007 109.476 29.3332 110.693 28.8541C111.321 28.6081 111.969 28.4786 112.636 28.4139C113.834 28.2974 115.039 28.388 116.243 28.3556C116.366 28.3556 116.489 28.3556 116.606 28.3556C116.819 27.2874 116.437 26.1675 115.323 25.7855C115.026 25.6819 114.715 25.5913 114.391 25.6301C114.242 25.6496 114.093 25.6366 113.944 25.6301C113.212 25.5978 112.539 25.8114 111.891 26.1221C111.509 26.3034 111.14 26.5171 110.771 26.7307C110.628 26.8149 110.531 26.789 110.441 26.666C110.123 26.2193 109.812 25.7726 109.495 25.3259C109.411 25.2093 109.456 25.1252 109.56 25.054C109.89 24.8209 110.208 24.5619 110.564 24.3742C110.965 24.1541 111.393 23.9858 111.814 23.811C112.306 23.6038 112.83 23.5132 113.355 23.4355C114.087 23.3319 114.812 23.3384 115.544 23.4484C116.146 23.5455 116.722 23.7268 117.26 24.0117C118.082 24.4454 118.678 25.0928 118.989 25.9927C119.183 26.5624 119.293 27.145 119.287 27.76C119.28 30.2978 119.287 32.8291 119.287 35.3669C119.287 35.4963 119.287 35.6193 119.287 35.7812V35.7877ZM116.645 30.2978C116.496 30.2978 116.392 30.2978 116.288 30.2978C115.382 30.2978 114.482 30.2978 113.575 30.2978C113.063 30.2978 112.565 30.382 112.079 30.5697C111.593 30.7575 111.231 31.2754 111.231 31.8127C111.231 31.9875 111.231 32.1558 111.231 32.3306C111.231 32.4148 111.25 32.4989 111.283 32.5766C111.503 33.0881 111.904 33.3729 112.409 33.5412C112.863 33.6901 113.316 33.7419 113.789 33.729C114.605 33.7095 115.336 33.47 115.939 32.9068C116.146 32.7126 116.327 32.473 116.444 32.2141C116.716 31.6185 116.67 30.984 116.632 30.2913L116.645 30.2978Z" fill="#469D49"/>
<path d="M156.704 53.6815C156.503 53.8628 156.329 54.0246 156.154 54.1735C155.487 54.7562 154.71 55.0863 153.835 55.2352C153.447 55.3 153.058 55.3582 152.663 55.3453C151.705 55.3 150.785 55.0863 149.995 54.5101C149.315 54.0181 148.81 53.3966 148.577 52.5486C148.383 51.8429 148.344 51.1437 148.499 50.4445C148.681 49.6547 149.108 49.0203 149.807 48.5736C150.442 48.1657 151.122 47.9586 151.854 47.8291C153.071 47.609 154.295 47.7644 155.513 47.7126C155.83 47.6996 156.147 47.7126 156.49 47.7126C156.562 47.4148 156.562 47.1299 156.516 46.8645C156.432 46.3401 156.27 45.8481 155.836 45.4791C155.61 45.2849 155.357 45.1489 155.085 45.0777C154.224 44.8576 153.369 44.8964 152.508 45.1424C151.847 45.3366 151.264 45.6798 150.669 46.0099C150.507 46.1006 150.39 46.1006 150.287 45.9517C149.982 45.5244 149.678 45.0971 149.373 44.6698C149.283 44.5404 149.315 44.4432 149.445 44.3397C150.021 43.893 150.649 43.524 151.323 43.265C151.802 43.0773 152.307 42.9089 152.812 42.8248C153.615 42.7018 154.425 42.6047 155.247 42.7665C155.836 42.8766 156.406 43.019 156.944 43.2715C157.935 43.7376 158.595 44.495 158.9 45.5632C159.016 45.9711 159.068 46.3789 159.087 46.7997C159.204 49.4605 159.107 52.1278 159.139 54.7885C159.139 55.1187 159.113 55.1511 158.802 55.1511C158.22 55.1511 157.63 55.1511 157.047 55.1511C156.75 55.1511 156.724 55.1187 156.724 54.8079C156.724 54.5296 156.724 54.2447 156.724 53.9663C156.724 53.8822 156.711 53.8045 156.698 53.675L156.704 53.6815ZM156.51 49.59C156.354 49.59 156.238 49.59 156.121 49.59C155.072 49.6159 154.017 49.5447 152.961 49.6418C152.579 49.6742 152.229 49.7713 151.886 49.9137C151.562 50.0496 151.303 50.2956 151.174 50.6193C150.85 51.4415 151.07 52.2896 151.919 52.7363C152.365 52.9694 152.864 53.047 153.369 53.0794C153.699 53.0988 154.017 53.0406 154.347 52.9758C154.91 52.8593 155.39 52.6068 155.811 52.2313C156.594 51.5257 156.588 50.5934 156.516 49.59H156.51Z" fill="#0091CA"/>
<path d="M115.246 47.7126C115.291 46.8645 115.239 46.107 114.598 45.5309C114.346 45.2978 114.048 45.136 113.711 45.0583C112.863 44.8576 112.034 44.9094 111.198 45.1618C110.654 45.3237 110.156 45.5826 109.67 45.861C109.035 46.2171 109.165 46.1847 108.789 45.6539C108.589 45.3625 108.381 45.0777 108.181 44.7864C107.993 44.5145 107.999 44.4886 108.252 44.2943C109.061 43.6599 109.968 43.2197 110.952 42.9607C111.639 42.7795 112.351 42.6953 113.057 42.6759C113.245 42.6759 113.439 42.7082 113.627 42.7341C114.184 42.7989 114.741 42.8766 115.265 43.0967C116.172 43.4786 116.955 44.0095 117.389 44.9417C117.661 45.5114 117.81 46.1135 117.81 46.7479C117.81 49.4346 117.81 52.1213 117.81 54.8079C117.81 54.9115 117.797 55.0151 117.791 55.1316C117.694 55.1446 117.623 55.164 117.551 55.164C116.955 55.164 116.36 55.164 115.764 55.164C115.485 55.164 115.453 55.1252 115.447 54.8468C115.447 54.4842 115.447 54.1152 115.447 53.6815C115.33 53.7786 115.259 53.8304 115.201 53.8951C114.566 54.549 113.795 54.9633 112.921 55.1834C112.319 55.3323 111.704 55.4294 111.088 55.3517C110.195 55.2417 109.327 55.0281 108.602 54.4454C107.993 53.9599 107.527 53.3707 107.3 52.5809C107.093 51.8558 107.073 51.1308 107.222 50.4122C107.313 49.959 107.507 49.5123 107.85 49.1562C108.388 48.593 109.022 48.2175 109.774 48.0168C110.454 47.8291 111.14 47.7126 111.846 47.719C112.85 47.719 113.847 47.719 114.851 47.719C114.967 47.719 115.084 47.719 115.246 47.719V47.7126ZM115.239 49.59C115.084 49.59 114.974 49.59 114.857 49.59C113.795 49.6159 112.733 49.5447 111.671 49.6418C111.283 49.6806 110.92 49.7713 110.57 49.9331C110.214 50.1014 109.949 50.3798 109.832 50.7747C109.709 51.189 109.735 51.6034 109.903 52.0047C110 52.2378 110.162 52.4126 110.363 52.568C110.803 52.9046 111.334 53.0017 111.852 53.0665C112.448 53.1442 113.044 53.0406 113.594 52.8075C114.249 52.5291 114.805 52.1278 115.077 51.4221C115.298 50.8459 115.272 50.2438 115.233 49.5835L115.239 49.59Z" fill="#0091CA"/>
<path d="M101.711 4.29866H104.205C104.205 4.29866 104.23 4.32456 104.237 4.33751C104.237 4.34398 104.25 4.35693 104.256 4.3634C104.263 4.41519 104.282 4.46699 104.282 4.51878C104.282 8.4549 104.282 12.391 104.282 16.3271C104.282 16.366 104.269 16.4113 104.263 16.4502C104.036 16.5278 102.191 16.5537 101.757 16.476C101.692 16.1718 101.737 15.8481 101.724 15.5309C101.718 15.2136 101.724 14.8899 101.724 14.5727C101.705 14.5663 101.679 14.5533 101.659 14.5468C101.517 14.7152 101.381 14.8835 101.245 15.0518C100.746 15.6798 100.105 16.107 99.3735 16.3919C98.7647 16.6314 98.1236 16.7544 97.4696 16.7026C96.4723 16.6185 95.5397 16.366 94.7367 15.6927C93.9985 15.0712 93.5775 14.2879 93.3444 13.3686C93.2019 12.8118 93.1631 12.2486 93.1631 11.6724C93.1631 9.35477 93.1631 7.03712 93.1631 4.71947C93.1631 4.58999 93.1631 4.46699 93.1631 4.35046C93.4221 4.25982 95.3714 4.2404 95.7599 4.31809C95.7664 4.44109 95.7858 4.57704 95.7858 4.71299C95.7858 6.82348 95.7729 8.94044 95.7923 11.0509C95.7923 11.6789 95.8571 12.3069 96.1291 12.9025C96.4658 13.6405 97.0098 14.0548 97.7869 14.2102C98.7194 14.3979 99.5807 14.2361 100.364 13.6988C101.057 13.2262 101.485 12.5723 101.608 11.7177C101.685 11.1739 101.724 10.6301 101.724 10.0798C101.724 8.29305 101.724 6.49979 101.724 4.71299V4.28572L101.711 4.29866Z" fill="#0091CA"/>
<path d="M171.67 44.6634C171.32 45.0971 170.984 45.5244 170.64 45.9452C170.537 46.0682 170.44 46.1977 170.336 46.3207C170.161 46.5149 170.135 46.5084 169.915 46.3595C169.527 46.1006 169.145 45.8222 168.73 45.6021C168.212 45.3237 167.649 45.1877 167.046 45.1813C165.874 45.1683 164.883 45.5826 164.087 46.4437C163.705 46.8515 163.446 47.3371 163.284 47.8874C163.109 48.4894 163.135 49.098 163.206 49.6806C163.297 50.3604 163.601 50.9883 164.067 51.5192C164.624 52.1601 165.298 52.6133 166.127 52.7881C167.208 53.0211 168.244 52.8981 169.17 52.2249C169.475 52.0047 169.76 51.7652 170.045 51.5257C170.232 51.3638 170.271 51.3509 170.44 51.5322C170.835 51.953 171.223 52.3802 171.605 52.814C171.787 53.0147 171.787 53.0729 171.573 53.2672C171.307 53.5132 171.029 53.7462 170.738 53.9663C170.064 54.4713 169.332 54.8597 168.523 55.0734C167.772 55.2741 167.001 55.41 166.224 55.3323C164.929 55.2029 163.737 54.782 162.727 53.9275C161.924 53.2477 161.302 52.432 160.933 51.4221C160.726 50.8718 160.661 50.3021 160.564 49.7324C160.473 49.1821 160.532 48.6448 160.603 48.0945C160.668 47.5896 160.778 47.0975 160.952 46.6249C161.335 45.615 161.969 44.7993 162.805 44.1325C163.303 43.7376 163.834 43.4074 164.424 43.1808C164.916 42.9866 165.414 42.8118 165.952 42.7795C166.282 42.76 166.606 42.6694 166.93 42.6694C167.526 42.6694 168.108 42.773 168.691 42.896C169.494 43.0708 170.207 43.4333 170.867 43.9059C171.159 44.1131 171.443 44.3397 171.67 44.6569V44.6634Z" fill="#0091CA"/>
<path d="M126.889 23.5455C126.889 23.3772 126.889 23.2607 126.889 23.1442C126.889 22.1731 126.889 21.202 126.889 20.2309C126.889 20.1532 126.889 20.082 126.889 20.0043C126.902 19.7907 126.941 19.7518 127.161 19.7389C127.213 19.7389 127.265 19.7389 127.323 19.7389C127.919 19.7389 128.515 19.7389 129.111 19.7389C129.227 19.7389 129.337 19.7518 129.48 19.7583C129.532 20.4057 129.499 21.0272 129.506 21.6487C129.506 22.2702 129.506 22.8917 129.506 23.5455C129.661 23.552 129.778 23.565 129.888 23.565C130.697 23.565 131.507 23.565 132.316 23.565C132.679 23.565 132.698 23.5844 132.698 23.9469C132.698 24.3871 132.698 24.8338 132.698 25.2741C132.698 25.7208 132.659 25.7596 132.232 25.7596C131.455 25.7596 130.678 25.7596 129.901 25.7596C129.784 25.7596 129.674 25.7661 129.532 25.7726C129.525 25.902 129.512 26.0056 129.512 26.1092C129.512 28.0384 129.506 29.9676 129.512 31.8969C129.512 32.3889 129.655 32.855 130.011 33.224C130.471 33.7031 131.047 33.729 131.643 33.5995C131.986 33.5283 132.258 33.3146 132.517 33.0881C132.582 33.0363 132.646 32.9845 132.731 32.9197C132.795 32.9909 132.86 33.0492 132.905 33.1139C133.184 33.5865 133.456 34.0591 133.734 34.5317C133.825 34.6806 133.786 34.7972 133.67 34.9007C133.229 35.2827 132.757 35.6064 132.193 35.7682C131.818 35.8718 131.435 35.9625 131.047 36.0207C130.84 36.0531 130.626 36.0013 130.419 35.9819C129.635 35.9042 128.936 35.6323 128.333 35.1144C127.777 34.6418 127.362 34.0721 127.142 33.36C126.967 32.7967 126.902 32.227 126.902 31.6444C126.902 29.8187 126.902 27.9996 126.902 26.1739C126.902 26.0509 126.889 25.9215 126.883 25.7661C126.734 25.7596 126.611 25.7467 126.481 25.7467C126.216 25.7467 125.95 25.7467 125.685 25.7467C125.465 25.7402 125.374 25.669 125.374 25.4618C125.367 24.8986 125.374 24.3418 125.374 23.7786C125.374 23.6168 125.465 23.5455 125.62 23.5455C125.918 23.5455 126.216 23.5455 126.514 23.5455C126.63 23.5455 126.74 23.5326 126.909 23.5261L126.889 23.5455Z" fill="#469D49"/>
<path d="M124.137 27.3004C124.137 29.9741 124.137 32.6478 124.137 35.3215C124.137 35.6452 123.98 35.8071 123.664 35.8071C123.049 35.8071 122.427 35.8071 121.812 35.8071C121.463 35.8071 121.456 35.8071 121.456 35.4445C121.456 33.4959 121.456 31.5408 121.456 29.5921C121.456 26.1351 121.456 22.6716 121.456 19.2145C121.456 18.921 121.603 18.7743 121.896 18.7743C122.505 18.7743 123.107 18.7743 123.716 18.7743C124.131 18.7743 124.137 18.7808 124.137 19.2145C124.137 21.9076 124.137 24.6008 124.137 27.3004Z" fill="#469D49"/>
<path d="M135.897 6.40268C136.545 5.4316 137.374 4.73242 138.417 4.31161C138.812 4.14977 139.239 4.02676 139.673 4.10445C139.751 4.38283 139.757 6.40268 139.686 6.70695C139.453 6.73932 139.213 6.77817 138.974 6.79759C137.75 6.90764 136.901 7.54856 136.39 8.66207C136.053 9.40009 135.885 10.177 135.891 11.0056C135.91 12.6759 135.891 14.3461 135.891 16.0164C135.891 16.1006 135.891 16.1912 135.891 16.2754C135.891 16.4372 135.807 16.5084 135.651 16.5084C135.451 16.5084 135.25 16.5084 135.043 16.5084C134.55 16.5084 134.065 16.5084 133.573 16.5084C133.236 16.5084 133.21 16.4825 133.21 16.1394C133.21 14.7799 133.21 13.4204 133.21 12.0673C133.21 9.63962 133.21 7.21839 133.21 4.79068C133.21 4.70652 133.21 4.61589 133.21 4.53173C133.223 4.33104 133.262 4.27925 133.463 4.27925C134.188 4.27925 134.907 4.27925 135.632 4.27925C135.839 4.27925 135.878 4.33104 135.885 4.5641C135.885 5.09496 135.885 5.61934 135.885 6.1502C135.885 6.23436 135.885 6.31852 135.885 6.40268H135.897Z" fill="#0091CA"/>
<path d="M119.941 42.9413H122.512C122.589 43.647 122.505 44.3526 122.563 45.1101C122.673 44.9741 122.758 44.8835 122.822 44.7799C123.23 44.1713 123.755 43.6988 124.357 43.3038C124.927 42.9348 125.562 42.7795 126.216 42.6824C126.352 42.6629 126.416 42.7341 126.429 42.8571C126.429 42.9089 126.429 42.9672 126.429 43.019C126.429 43.6858 126.429 44.3591 126.429 45.0259C126.429 45.3496 126.404 45.3755 126.08 45.382C125.4 45.3949 124.752 45.5438 124.176 45.9322C123.593 46.3272 123.191 46.8774 122.939 47.5313C122.648 48.2887 122.524 49.0786 122.524 49.8943C122.531 51.4804 122.524 53.0665 122.524 54.6526C122.524 54.7367 122.524 54.8274 122.524 54.9115C122.524 55.0734 122.447 55.1511 122.291 55.1511C122.175 55.1511 122.058 55.1511 121.942 55.1511C121.391 55.1511 120.834 55.1511 120.284 55.1511C119.941 55.1511 119.908 55.1252 119.908 54.7885C119.908 50.9366 119.908 47.0911 119.908 43.2391C119.908 43.1549 119.921 43.0708 119.928 42.9348L119.941 42.9413Z" fill="#0091CA"/>
</svg>
