<svg width="32" height="38" viewBox="0 0 32 38" fill="none" xmlns="http://www.w3.org/2000/svg">
<path d="M26.6066 8.39336C23.7736 5.56035 20.0066 4 16 4C11.9934 4 8.22637 5.56035 5.39336 8.39336C2.56035 11.2264 1 14.9934 1 19C1 23.0066 2.56035 26.7736 5.39336 29.6066C8.22637 32.4396 11.9934 34 16 34C20.0066 34 23.7736 32.4396 26.6066 29.6066C29.4396 26.7736 31 23.0066 31 19C31 14.9934 29.4396 11.2264 26.6066 8.39336ZM7.51035 29.1543C8.00547 24.8928 11.6699 21.6021 16 21.6021C18.2828 21.6021 20.4297 22.4916 22.0445 24.1059C23.4086 25.4705 24.2687 27.2518 24.4902 29.1537C22.1898 31.0803 19.2285 32.2422 16 32.2422C12.7715 32.2422 9.81016 31.0809 7.51035 29.1543ZM16 19.7916C13.4881 19.7916 11.4443 17.7479 11.4443 15.2359C11.4443 12.724 13.4881 10.6803 16 10.6803C18.5119 10.6803 20.5557 12.724 20.5557 15.2359C20.5557 17.7479 18.5119 19.7916 16 19.7916ZM26.0031 27.6684C25.5555 25.8625 24.6209 24.1973 23.2873 22.8637C22.2068 21.7832 20.9289 20.9729 19.535 20.4648C21.2107 19.3287 22.3141 17.4086 22.3141 15.2359C22.3141 11.7549 19.4816 8.92246 16.0006 8.92246C12.5195 8.92246 9.68711 11.7549 9.68711 15.2359C9.68711 17.4098 10.791 19.3305 12.468 20.4666C11.1854 20.9342 9.99883 21.6566 8.97754 22.6076C7.49922 23.9846 6.47207 25.74 5.99629 27.6672C3.98008 25.3428 2.7584 22.3117 2.7584 19.0006C2.7584 11.6986 8.69863 5.7584 16.0006 5.7584C23.3025 5.7584 29.2428 11.6986 29.2428 19.0006C29.2428 22.3123 28.0205 25.3445 26.0037 27.6684H26.0031Z" fill="white"/>
</svg>
