<svg width="45" height="41" viewBox="0 0 45 41" fill="none" xmlns="http://www.w3.org/2000/svg">
<path d="M15.7296 9.30444H41.5769L27.4575 20.4213C27.1582 20.6564 26.8027 20.7719 26.4792 20.803C26.1538 20.7709 25.7973 20.6564 25.4941 20.4213L15.4042 12.4743C15.2976 12.3879 15.1765 12.3228 15.0438 12.2811C15.5185 11.609 15.7897 10.7961 15.7751 9.92113C15.7722 9.7201 15.7548 9.51421 15.7286 9.30444H15.7296ZM9.15664 2.15475C9.18958 2.16058 9.24285 2.18097 9.35908 2.23439C9.58864 2.34413 9.95381 2.62577 10.3122 3.01812C11.0328 3.80476 11.7525 4.99637 12.1254 5.78301C12.137 5.80632 12.1487 5.83157 12.1603 5.85779C13.2209 7.68163 13.6781 9.07622 13.6917 9.95124C13.7062 10.8301 13.4708 11.2089 12.7279 11.6372L10.8101 12.7453C9.56055 13.4659 8.97067 14.7585 8.82441 15.9637C8.67718 17.1699 8.89415 18.3411 9.42882 19.2686L14.1624 27.4477C14.699 28.3732 15.6134 29.1482 16.7331 29.6241C17.8538 30.1009 19.2699 30.2359 20.5194 29.5163L22.4372 28.4101C23.1801 27.9828 23.6296 27.9741 24.3831 28.4237C25.1396 28.8743 26.1218 29.963 27.1776 31.7888C27.1921 31.816 27.2066 31.8383 27.2241 31.8645C27.719 32.5803 28.3932 33.7942 28.7177 34.8101C28.8794 35.3151 28.9424 35.7715 28.922 36.024C28.8998 36.2775 28.8939 36.2513 28.8271 36.2911L27.3684 37.1302C23.7032 38.7238 20.3431 38.3645 17.3404 36.8029C14.3319 35.2345 11.7176 32.4035 9.89472 29.0792C9.88891 29.0724 9.886 29.0647 9.88116 29.0598L5.88856 22.1607C5.88178 22.1539 5.87888 22.1481 5.87403 22.1393C3.89905 18.9015 2.74737 15.2256 2.8917 11.844C3.03602 8.4673 4.40272 5.38872 7.6214 3.02006L9.08109 2.18389C9.11499 2.16446 9.12565 2.1499 9.15761 2.15281L9.15664 2.15475ZM9.17117 0.0988039C8.7847 0.0929769 8.39047 0.173583 8.03693 0.380441L6.49394 1.27002C6.45907 1.28945 6.42711 1.31081 6.39611 1.33024C2.68151 4.05532 0.971917 7.84867 0.805317 11.7586C0.638716 15.6665 1.93955 19.7007 4.08986 23.227L8.06987 30.1028L8.06018 30.0824C10.0468 33.702 12.8935 36.8417 16.3718 38.65C19.852 40.4612 23.9976 40.8818 28.2208 39.0356C28.2556 39.021 28.2905 39.0045 28.3225 38.9851L29.8684 38.0955C30.5832 37.6876 30.9425 36.8942 31.0007 36.2017C31.0607 35.5112 30.9203 34.8392 30.7072 34.1759C30.2897 32.8658 29.5613 31.5936 28.9588 30.7205C27.8217 28.7597 26.7243 27.3991 25.4564 26.6377C24.1778 25.8734 22.6435 25.8851 21.3911 26.6067L19.4733 27.7148C18.9066 28.042 18.2441 28.0042 17.5477 27.708C16.8542 27.4127 16.211 26.8213 15.9727 26.4066L11.2391 18.2275C10.9999 17.8108 10.8042 16.9611 10.8972 16.2123C10.9863 15.4655 11.2885 14.8799 11.8561 14.5526L13.7188 13.4785C13.7672 13.7291 13.9086 13.9563 14.113 14.1088L24.2039 22.0577C24.8607 22.5744 25.6375 22.8628 26.4211 22.9085C26.4608 22.9104 26.5015 22.9104 26.5422 22.9085C27.3258 22.8628 28.0997 22.5744 28.7564 22.0577L42.6549 11.1108V29.1958C42.6549 29.4706 42.3421 29.8329 41.728 29.8329H32.1068C31.5276 29.8299 31.0588 30.298 31.0588 30.8749C31.0588 31.4518 31.5286 31.9199 32.1068 31.916H41.728C43.301 31.916 44.7462 30.7759 44.7462 29.1948V9.9425C44.7462 8.3595 43.301 7.22033 41.728 7.22033H15.1572C14.8627 6.48322 14.4743 5.70143 13.9851 4.85167C13.527 3.89605 12.7841 2.63256 11.8552 1.61673C11.3854 1.10201 10.8788 0.645568 10.2463 0.350335V0.353248C9.93153 0.202718 9.55668 0.107544 9.17117 0.0988039Z" fill="#0D3247"/>
</svg>
