<svg width="48" height="48" viewBox="0 0 48 48" fill="none" xmlns="http://www.w3.org/2000/svg">
<path d="M47.1449 14.556H46.3592V5.91379C46.3592 5.47972 46.0076 5.12813 45.5735 5.12813H32.2173V1.19984C32.2173 0.765767 31.8658 0.414185 31.4317 0.414185H17.2898C16.8558 0.414185 16.5042 0.765767 16.5042 1.19984V5.12813H3.14799C2.71391 5.12813 2.36233 5.47972 2.36233 5.91379V14.556H1.57667C1.1426 14.556 0.791016 14.9076 0.791016 15.3417V18.4843C0.791016 18.9184 1.1426 19.27 1.57667 19.27H2.36233V46.768C2.36233 47.2021 2.71391 47.5537 3.14799 47.5537H45.5735C46.0076 47.5537 46.3592 47.2021 46.3592 46.768V19.27H47.1449C47.5789 19.27 47.9305 18.9184 47.9305 18.4843V15.3417C47.9305 14.9076 47.5789 14.556 47.1449 14.556ZM32.2173 6.69945H44.7879V14.556H32.2173V6.69945ZM18.0755 1.9855H30.646V14.556H18.0755V1.9855ZM3.93365 6.69945H16.5042V14.556H3.93365V6.69945ZM39.2883 45.9824H29.0747V39.6971H39.2883V45.9824ZM39.2883 38.1258H29.0747V30.2692H39.2883V38.1258ZM39.2883 28.6979H29.0747V24.7696H39.2883V28.6979ZM44.7879 45.9824H40.8596V23.9839C40.8596 23.5499 40.508 23.1983 40.0739 23.1983H28.2891C27.855 23.1983 27.5034 23.5499 27.5034 23.9839V45.9824H3.93365V19.27H44.7879V45.9824ZM46.3592 17.6987H2.36233V16.1274H46.3592V17.6987Z" fill="#0D3247"/>
</svg>
