<svg width="44" height="50" viewBox="0 0 44 50" fill="none" xmlns="http://www.w3.org/2000/svg">
<path d="M30.2386 32.719C35.4057 24.6353 34.756 25.6433 34.905 25.4324C36.7867 22.7867 37.7807 19.6729 37.7807 16.4277C37.7807 7.82102 30.7754 0.731079 22.1312 0.731079C13.487 0.731079 6.48173 7.80683 6.48173 16.4277C6.48173 19.671 7.49657 22.8661 9.43995 25.5477L14.0238 32.719C9.12317 33.4698 0.791016 35.707 0.791016 40.6344C0.791016 42.4301 1.9671 44.9907 7.56866 46.9849C11.4801 48.3778 16.652 49.1446 22.1312 49.1446C32.3764 49.1446 43.4714 46.2634 43.4714 40.6344C43.4714 35.7061 35.1497 33.4707 30.2386 32.719ZM11.8168 23.9875C11.8016 23.963 11.7845 23.9393 11.7675 23.9157C10.1503 21.6983 9.32709 19.0696 9.32709 16.4277C9.32709 9.33394 15.0567 3.56781 22.1312 3.56781C29.2057 3.56781 34.9353 9.33677 34.9353 16.4277C34.9353 19.0743 34.1272 21.6132 32.5974 23.772C32.4598 23.9526 33.175 22.8443 22.1312 40.1229L11.8168 23.9875ZM22.1312 46.3079C10.9404 46.3079 3.63637 43.0286 3.63637 40.6344C3.63637 39.0251 7.3894 36.3803 15.7054 35.3487L20.9314 43.5241C21.1922 43.9326 21.6446 44.1803 22.1312 44.1803C22.6178 44.1803 23.0702 43.9326 23.331 43.5241L28.557 35.3487C36.873 36.3803 40.626 39.026 40.626 40.6344C40.626 43.0078 33.3884 46.3079 22.1312 46.3079Z" fill="#0D3247"/>
</svg>
