<svg width="81" height="86" viewBox="0 0 81 86" fill="none" xmlns="http://www.w3.org/2000/svg">
<path d="M76.3646 23.652H61.1696V4.13011C61.1696 1.85259 59.311 0 57.0262 0H23.9738C21.6873 0 19.8254 1.85259 19.8254 4.13011V23.6537H4.63536C2.07926 23.6537 0 25.7263 0 28.2742V70.2757C0 71.0181 0.60322 71.621 1.34966 71.621H31.7803C32.5014 72.7531 33.2681 73.8666 34.0449 74.9517C29.9588 75.9409 27.5021 77.8389 27.5021 80.1181C27.5021 83.9795 34.0415 86 40.5 86C46.9585 86 53.4979 83.9795 53.4979 80.1181C53.4979 77.812 51.1103 75.951 47.0074 74.9617C47.7875 73.875 48.5542 72.7598 49.2737 71.621H79.6503C80.3951 71.621 81 71.0197 81 70.2757V28.2725C81 25.7263 78.9207 23.652 76.3646 23.652ZM2.69764 28.2725C2.69764 27.2077 3.56709 26.3427 4.63367 26.3427H19.8254V68.9303H2.69764V28.2725ZM47.4084 69.5199C47.3831 69.5585 47.3578 69.5971 47.3359 69.6374C45.8599 72.0409 44.1008 74.394 42.4613 76.5859C42.0721 77.1066 41.6913 77.6155 41.3223 78.116C41.1184 78.3931 40.8606 78.5225 40.5219 78.5225C40.1765 78.5208 39.9103 78.3847 39.7081 78.1093C39.2868 77.5315 38.8487 76.942 38.4056 76.344C36.7947 74.1707 35.1249 71.915 33.7146 69.6458C33.6877 69.5971 33.659 69.5501 33.627 69.5048C30.1526 63.863 28.3328 58.1356 33.1232 53.3639C35.1603 51.3333 37.8361 50.3188 40.5118 50.3188C43.1875 50.3188 45.8633 51.3333 47.8987 53.3639C52.6503 58.0987 50.8087 63.942 47.4084 69.5199ZM50.8002 80.1164C50.8002 81.1997 47.1641 83.3093 40.5 83.3093C33.8359 83.3093 30.1998 81.1997 30.1998 80.1164C30.1998 79.3421 32.1341 78.0035 35.7821 77.3316C35.9337 77.5366 36.0854 77.7415 36.2353 77.943C36.6751 78.5376 37.1081 79.1204 37.5294 79.6982C38.2438 80.669 39.3003 81.2065 40.5135 81.2149C41.7233 81.2149 42.7831 80.6791 43.4959 79.7099C43.8598 79.2161 44.239 78.7106 44.6248 78.1949C44.8354 77.9128 45.0477 77.6289 45.2617 77.3417C48.8811 78.0152 50.8002 79.3471 50.8002 80.1164ZM49.8078 51.4609C44.6821 46.3516 36.3415 46.3516 31.2158 51.4609C27.4886 55.1728 26.567 59.7783 28.4744 65.1479C28.9242 66.4143 29.5123 67.679 30.188 68.9303H22.5247V4.13011C22.5247 3.33566 23.1751 2.6907 23.9738 2.6907H57.0262C57.8232 2.6907 58.4702 3.33734 58.4702 4.13011V68.9303H50.8491C51.4692 67.7681 52.0151 66.5907 52.4481 65.4015C54.4516 59.8941 53.5636 55.2031 49.8078 51.4609ZM78.3024 68.9303H61.1696V26.3427H76.3646C77.4329 26.3427 78.3007 27.2093 78.3007 28.2725V68.9303H78.3024ZM40.5 51.681C36.0348 51.681 32.402 55.3022 32.402 59.7531C32.402 64.204 36.0348 67.8252 40.5 67.8252C44.9652 67.8252 48.598 64.204 48.598 59.7531C48.598 55.3022 44.9652 51.681 40.5 51.681ZM40.5 65.1361C37.5227 65.1361 35.0997 62.7209 35.0997 59.7531C35.0997 56.7852 37.5227 54.37 40.5 54.37C43.4773 54.37 45.9003 56.7852 45.9003 59.7531C45.9003 62.7209 43.4773 65.1361 40.5 65.1361ZM32.37 7.93606H28.0278C26.8197 7.93606 25.8374 8.91526 25.8374 10.1195V14.4478C25.8374 15.6521 26.8197 16.6313 28.0278 16.6313H32.37C33.5781 16.6313 34.5605 15.6521 34.5605 14.4478V10.1195C34.5605 8.91526 33.5781 7.93606 32.37 7.93606ZM31.8628 13.9406H28.5384V10.6268H31.8628V13.9406ZM42.6686 7.93606H38.3264C37.1183 7.93606 36.1359 8.91526 36.1359 10.1195V14.4478C36.1359 15.6521 37.1183 16.6313 38.3264 16.6313H42.6686C43.8767 16.6313 44.859 15.6521 44.859 14.4478V10.1195C44.859 8.91526 43.8767 7.93606 42.6686 7.93606ZM42.1597 13.9406H38.8352V10.6268H42.1597V13.9406ZM48.6249 16.6296H52.9705C54.1786 16.6296 55.1609 15.6504 55.1609 14.4461V10.1195C55.1609 8.91526 54.1786 7.93606 52.9705 7.93606H48.6249C47.4168 7.93606 46.4345 8.91526 46.4345 10.1195V14.4478C46.4345 15.6504 47.4168 16.6296 48.6249 16.6296ZM49.1338 10.6268H52.4633V13.9406H49.1338V10.6268ZM32.37 18.9441H28.0278C26.8197 18.9441 25.8374 19.9233 25.8374 21.1276V25.4592C25.8374 26.6635 26.8197 27.6427 28.0278 27.6427H32.37C33.5781 27.6427 34.5605 26.6635 34.5605 25.4592V21.1276C34.5605 19.9233 33.5781 18.9441 32.37 18.9441ZM31.8628 24.952H28.5384V21.6331H31.8628V24.952ZM42.6686 18.9441H38.3264C37.1183 18.9441 36.1359 19.9233 36.1359 21.1276V25.4592C36.1359 26.6635 37.1183 27.6427 38.3264 27.6427H42.6686C43.8767 27.6427 44.859 26.6635 44.859 25.4592V21.1276C44.859 19.9233 43.8767 18.9441 42.6686 18.9441ZM42.1597 24.952H38.8352V21.6331H42.1597V24.952ZM48.6249 27.6427H52.9705C54.1786 27.6427 55.1609 26.6635 55.1609 25.4592V21.1276C55.1609 19.9233 54.1786 18.9441 52.9705 18.9441H48.6249C47.4168 18.9441 46.4345 19.9233 46.4345 21.1276V25.4592C46.4345 26.6635 47.4168 27.6427 48.6249 27.6427ZM49.1338 21.6331H52.4633V24.952H49.1338V21.6331ZM32.37 29.9555H28.0278C26.8197 29.9555 25.8374 30.9347 25.8374 32.1389V36.4672C25.8374 37.6715 26.8197 38.6507 28.0278 38.6507H32.37C33.5781 38.6507 34.5605 37.6715 34.5605 36.4672V32.1389C34.5605 30.9347 33.5781 29.9555 32.37 29.9555ZM31.8628 35.96H28.5384V32.6462H31.8628V35.96ZM42.6686 29.9555H38.3264C37.1183 29.9555 36.1359 30.9347 36.1359 32.1389V36.4672C36.1359 37.6715 37.1183 38.6507 38.3264 38.6507H42.6686C43.8767 38.6507 44.859 37.6715 44.859 36.4672V32.1389C44.859 30.9347 43.8767 29.9555 42.6686 29.9555ZM42.1597 35.96H38.8352V32.6462H42.1597V35.96ZM55.1609 36.4672V32.1389C55.1609 30.9347 54.1786 29.9555 52.9705 29.9555H48.6249C47.4168 29.9555 46.4345 30.9347 46.4345 32.1389V36.4672C46.4345 37.6715 47.4168 38.6507 48.6249 38.6507H52.9705C54.1786 38.6507 55.1609 37.6715 55.1609 36.4672ZM52.4616 35.96H49.1321V32.6462H52.4616V35.96ZM71.9096 31.0186H67.564C66.3559 31.0186 65.3736 31.9978 65.3736 33.2021V37.5304C65.3736 38.7347 66.3559 39.7139 67.564 39.7139H71.9096C73.1177 39.7139 74.1 38.7347 74.1 37.5304V33.2021C74.0984 31.9978 73.116 31.0186 71.9096 31.0186ZM71.4007 37.0215H68.0712V33.7077H71.4007V37.0215ZM13.4326 31.0186H9.09043C7.8823 31.0186 6.89996 31.9978 6.89996 33.2021V37.5304C6.89996 38.7347 7.8823 39.7139 9.09043 39.7139H13.4326C14.6407 39.7139 15.6231 38.7347 15.6231 37.5304V33.2021C15.6231 31.9978 14.6407 31.0186 13.4326 31.0186ZM12.9237 37.0215H9.59929V33.7077H12.9237V37.0215Z" fill="#469D49"/>
</svg>
