<svg width="18" height="18" viewBox="0 0 18 18" fill="none" xmlns="http://www.w3.org/2000/svg">
<path d="M12.7495 18C11.3468 18 10.0298 17.4536 9.03699 16.4622L1.53676 8.962C0.545352 7.9706 -0.000976562 6.65224 -0.000976562 5.2495C-0.000976562 2.35474 2.35379 -0.000732422 5.24926 -0.000732422C6.65199 -0.000732422 7.96895 0.545596 8.96176 1.537L16.462 9.03724C17.4534 10.0286 17.9997 11.347 17.9997 12.7497C17.9997 15.6445 15.645 18 12.7495 18ZM5.24926 1.49974C3.18066 1.49974 1.49949 3.18302 1.49949 5.2495C1.49949 6.25146 1.88973 7.19224 2.59777 7.90169L10.098 15.4019C10.8075 16.11 11.7496 16.5002 12.7502 16.5002C14.8188 16.5002 16.5 14.8169 16.5 12.7504C16.5 11.7485 16.1097 10.8077 15.4017 10.0983L7.90145 2.59802C7.19199 1.88997 6.2498 1.49974 5.24926 1.49974Z" fill="#0D3247"/>
</svg>
